<?xml version="1.0" encoding="utf-8"?>
<!-- Generator: Adobe Illustrator 16.0.0, SVG Export Plug-In . SVG Version: 6.00 Build 0)  -->
<!DOCTYPE svg PUBLIC "-//W3C//DTD SVG 1.1//EN" "http://www.w3.org/Graphics/SVG/1.1/DTD/svg11.dtd">
<svg version="1.1" xmlns="http://www.w3.org/2000/svg" xmlns:xlink="http://www.w3.org/1999/xlink" x="0px" y="0px"
	 width="74.126px" height="92.308px" viewBox="0 0 74.126 92.308" enable-background="new 0 0 74.126 92.308" xml:space="preserve">
<g id="Layer_1">
</g>
<g id="Layer_2">
	<g>
		<defs>
			<ellipse id="SVGID_1_" cx="33.895" cy="48.373" rx="53.847" ry="53.146"/>
		</defs>
		<clipPath id="SVGID_2_">
			<use xlink:href="#SVGID_1_"  overflow="visible"/>
		</clipPath>
		<g clip-path="url(#SVGID_2_)">
			
				<linearGradient id="SVGID_3_" gradientUnits="userSpaceOnUse" x1="77.5059" y1="197.1035" x2="181.332" y2="182.5117" gradientTransform="matrix(-1 0 0 1 456.3584 0)">
				<stop  offset="0" style="stop-color:#232323"/>
				<stop  offset="1" style="stop-color:#232323"/>
			</linearGradient>
			<path fill-rule="evenodd" clip-rule="evenodd" fill="url(#SVGID_3_)" d="M343.099,204.149c-1.545,1.542-2.502,3.687-2.502,6.052
				c0,2.361,0.957,4.5,2.502,6.051c1.549,1.548,3.691,2.502,6.051,2.502c2.365,0,4.504-0.954,6.053-2.502
				c1.549-1.552,2.51-3.69,2.51-6.051c0-2.366-0.961-4.51-2.51-6.052c-1.549-1.549-3.688-2.505-6.053-2.505
				C346.791,201.645,344.648,202.601,343.099,204.149L343.099,204.149z M288.25,204.149c-1.549,1.542-2.5,3.687-2.5,6.052
				c0,2.361,0.951,4.5,2.5,6.051c1.553,1.548,3.689,2.502,6.053,2.502c2.367,0,4.504-0.954,6.051-2.502
				c1.551-1.552,2.512-3.69,2.512-6.051c0-2.366-0.961-4.51-2.512-6.052c-1.547-1.549-3.684-2.505-6.051-2.505
				C291.939,201.645,289.802,202.601,288.25,204.149L288.25,204.149z M341.779,189.304l-7.807-7.448l2.25-2.436l-2.035-1.883
				l-7.754,8.396l2.045,1.879l2.545-2.757l9.359,8.935c-1.57,0.85-3.004,1.92-4.258,3.181c-1.588,1.586-2.887,3.467-3.816,5.547
				l-11.506-4.771l6.912-1.024v-5.876h-10.508l-2.707-18.826h-2.994v18.826v1.96v1.083l-2.375-0.986v-35.299h22.789L341.779,189.304
				L341.779,189.304z M369.285,220.709v-2.349h-3.605c-0.895,1.812-2.082,3.458-3.494,4.868c-3.338,3.336-7.941,5.396-13.035,5.396
				c-5.084,0-9.691-2.06-13.025-5.396c-1.875-1.873-3.344-4.152-4.279-6.686h-20.23c-0.934,2.539-2.406,4.813-4.281,6.686
				c-3.336,3.336-7.938,5.396-13.031,5.396c-5.082,0-9.691-2.06-13.027-5.396c-3.334-3.336-5.4-7.944-5.4-13.026
				c0-5.087,2.066-9.695,5.4-13.031c1.879-1.883,4.162-3.356,6.707-4.29v-1.588h11.277v-38.422v-4.934h4.941h31.332h3.621
				l1.084,3.469L353,192.172c3.547,0.754,6.711,2.524,9.186,4.999l9.09,2.618v18.737"/>
			<g>
				<g>
					<linearGradient id="SVGID_4_" gradientUnits="userSpaceOnUse" x1="278.4087" y1="44.6118" x2="360.9565" y2="44.6118">
						<stop  offset="0" style="stop-color:#232323"/>
						<stop  offset="1" style="stop-color:#232323"/>
					</linearGradient>
					<path fill="url(#SVGID_4_)" d="M308.75,84.856c-0.17,0-0.344-0.004-0.52-0.013c-1.834-0.097-3.271-0.785-4.271-2.045
						c-2.391-3.009-1.508-8.565-0.758-12.802c-0.566,0.312-1.164,0.663-1.775,1.024c-2.447,1.442-4.979,2.935-7.445,2.935
						c-1.652,0-3.047-0.673-4.145-2c-3.594-4.352,0.008-10.433,3.086-14.659c-5.469-0.068-13.693-0.187-14.445-6.485
						c-0.285-2.387,0.328-4.455,1.826-6.142c2.1-2.366,5.531-3.471,8.484-3.982c-3.232-1.849-5.688-4.264-6.809-6.82
						c-0.885-2.018-0.896-4.06-0.033-5.907c2.074-4.443,4.658-6.603,7.9-6.603c2.285,0,4.533,1.099,6.725,2.404
						c-2.203-5.141-3.836-11.217,3.107-14.546c1.199-0.574,2.422-0.867,3.633-0.867c3.648,0,6.494,2.598,8.365,5.041
						c0.395-2.268,1.307-4.417,2.629-6.011c1.777-2.141,4.125-3.195,6.838-2.984c2.709,0.204,5.016,1.666,6.496,4.113
						c0.662,1.093,1.119,2.327,1.367,3.612c1.59-2.259,3.664-4.021,6.697-4.021c0.785,0,1.613,0.124,2.465,0.366
						c2.535,0.72,4.25,2.667,4.834,5.482c0.432,2.091,0.166,4.429-0.631,6.508c1.75-0.894,3.543-1.673,5.35-1.673
						c1.736,0,3.252,0.727,4.5,2.16c3.83,4.392,0.199,9.571-2.75,13.125c0.572-0.044,1.168-0.071,1.779-0.071
						c5.803,0,9.238,2.415,9.676,6.802c0.184,1.834-0.436,3.601-1.787,5.11c-1.346,1.499-3.408,2.701-5.691,3.4
						c3.166,1.793,6.023,3.999,6.727,6.653c0.379,1.426,0.092,2.87-0.826,4.177c-2.273,3.234-7.949,3.486-9.637,3.486
						c-0.633,0-1.25-0.029-1.842-0.083c0.945,1.922,1.068,3.99,0.305,5.987c-1.225,3.208-4.543,5.448-8.068,5.448
						c-1.771,0-3.459-0.551-4.957-1.593c0.178,3.155-0.109,6.21-1.807,8.241c-1.137,1.361-2.77,2.105-4.857,2.211
						c-3.404,0.172-7.033-1.346-9.328-3.89c-0.723-0.803-1.299-1.686-1.715-2.621C315.898,80.898,313.808,84.856,308.75,84.856z
						 M304.949,66.407c0.32,0,0.633,0.114,0.881,0.329c0.348,0.302,0.516,0.76,0.445,1.216c-0.096,0.615-0.217,1.3-0.348,2.034
						c-0.635,3.571-1.598,8.967,0.133,11.145c0.508,0.641,1.264,0.979,2.311,1.034c3.779,0.228,5.145-2.426,7.008-6.837
						c0.453-1.08,0.926-2.198,1.467-3.191c0.307-0.563,0.969-0.827,1.576-0.64c0.609,0.188,1.002,0.783,0.936,1.417
						c-0.25,2.41,0.836,4.179,1.793,5.238c1.77,1.963,4.561,3.153,7.197,3.006c1.33-0.068,2.289-0.478,2.936-1.252
						c1.607-1.922,1.348-5.93,0.83-9.977c-0.078-0.612,0.271-1.198,0.848-1.421c0.578-0.224,1.229-0.022,1.582,0.483
						c1.908,2.73,4.078,3.304,5.563,3.304c2.4,0,4.74-1.566,5.564-3.724c0.801-2.092,0.068-4.292-2.059-6.194
						c-0.498-0.446-0.59-1.193-0.217-1.748c0.375-0.556,1.1-0.748,1.701-0.456c0.969,0.474,2.736,0.769,4.615,0.769
						c3.467,0,6.457-0.943,7.441-2.347c0.469-0.665,0.605-1.284,0.428-1.948c-0.775-2.936-6.93-5.84-8.951-6.795
						c-0.566-0.267-0.873-0.889-0.74-1.499c0.135-0.61,0.672-1.048,1.297-1.054c3.033-0.03,6.305-1.339,7.957-3.182
						c0.846-0.947,1.223-1.974,1.115-3.055c-0.291-2.91-2.648-4.384-7.008-4.384c-1.893,0-3.646,0.291-4.787,0.534
						c-0.557,0.122-1.123-0.123-1.42-0.603c-0.299-0.48-0.262-1.097,0.088-1.541c0.381-0.479,0.83-1.008,1.316-1.578
						c3.428-4.021,6.293-7.873,3.752-10.788c-0.736-0.846-1.523-1.24-2.479-1.24c-1.527,0-3.398,0.987-5.209,1.943
						c-1.17,0.62-2.383,1.26-3.59,1.691c-0.613,0.217-1.297-0.036-1.617-0.605c-0.32-0.566-0.188-1.283,0.318-1.697
						c2.145-1.753,3.352-5.401,2.752-8.305c-0.264-1.265-0.986-2.891-2.941-3.446c-0.611-0.174-1.193-0.263-1.73-0.263
						c-3.389,0-5.209,3.737-6.969,7.35l-0.459,0.934c-0.322,0.652-1.102,0.931-1.764,0.622c-0.66-0.304-0.957-1.079-0.668-1.747
						c1.086-2.523,0.887-5.754-0.498-8.044c-0.723-1.193-2.074-2.65-4.404-2.827c-1.82-0.14-3.35,0.546-4.574,2.023
						c-1.777,2.144-2.623,5.761-2.055,8.796c0.125,0.669-0.27,1.325-0.918,1.527c-0.65,0.206-1.348-0.114-1.627-0.734
						c-0.033-0.077-3.461-7.648-8.457-7.648c-0.807,0-1.641,0.203-2.475,0.602c-5.279,2.531-3.814,6.734-0.775,13.355
						c0.256,0.558,0.51,1.109,0.75,1.653c0.238,0.533,0.104,1.157-0.332,1.545c-0.434,0.389-1.072,0.452-1.57,0.155
						c-0.656-0.385-1.313-0.796-1.971-1.207c-2.434-1.522-4.951-3.096-7.092-3.096c-1.336,0-3.355,0.524-5.471,5.054
						c-0.533,1.145-0.514,2.387,0.061,3.696c1.307,2.981,5.402,6.009,10.193,7.533c0.635,0.202,1.025,0.838,0.916,1.494
						c-0.105,0.65-0.666,1.125-1.322,1.125c-0.006,0-0.014,0-0.021,0l-0.398-0.004c-4.051,0-9.195,0.923-11.494,3.511
						c-0.98,1.105-1.361,2.428-1.168,4.044c0.438,3.675,5.857,4.047,11.857,4.122c0.957,0.012,1.852,0.022,2.633,0.061
						c0.498,0.025,0.939,0.325,1.15,0.777c0.209,0.453,0.148,0.983-0.154,1.379c-2.471,3.22-7.611,9.92-4.723,13.416
						c0.588,0.709,1.227,1.027,2.076,1.027c1.736,0,3.945-1.304,6.082-2.564c1.588-0.935,3.088-1.819,4.5-2.244
						C304.689,66.425,304.82,66.407,304.949,66.407z"/>
				</g>
				<linearGradient id="SVGID_5_" gradientUnits="userSpaceOnUse" x1="298.2056" y1="49.23" x2="343.257" y2="42.8984">
					<stop  offset="0" style="stop-color:#232323"/>
					<stop  offset="1" style="stop-color:#232323"/>
				</linearGradient>
				<circle fill="url(#SVGID_5_)" cx="320.733" cy="46.064" r="20.784"/>
			</g>
			<g>
				<linearGradient id="SVGID_6_" gradientUnits="userSpaceOnUse" x1="-2.0244" y1="310.7607" x2="49.5439" y2="310.7607">
					<stop  offset="0" style="stop-color:#232323"/>
					<stop  offset="1" style="stop-color:#232323"/>
				</linearGradient>
				<path fill="url(#SVGID_6_)" d="M11.77,278.847c-0.735-3.195,2.169-14.373-3.35-12.754c-5.209,1.529-2.781,11.211-4.947,14.857
					c-3.195,5.379-5.866,8.975-5.455,15.672c0.336,5.453,1.674,11.178,3.436,16.344c1.645,4.824,2.224,9.609,4.879,14.152
					c2.875,4.918,7.027,8.523,10.383,13.148c7.805,10.752,19.387,10.111,30.169,15.32c2.996-5.283,3.64-15.133,1.008-20.416
					c-2.8-5.611-7.239-8.15-10.963-12.826c-3.63-4.559-2.547-10.906-7.747-15.004c-2.945-2.32-3.448-2.072-3.986-5.715
					c-0.356-2.412-0.207-5.305-0.678-7.701c-1.328-6.73-6.491-12.586-12.414-15.414"/>
				<path fill="#FFFFFF" d="M8.082,281.864c-1.955,4.248-4.395,9.496-1.6,13.998c2.779,4.471,8.574,3.514,11.927,6.75
					c0.331-4.828,2.061-8.547-2.03-11.945c-3.192-2.656-5.966-4.535-8.632-7.799"/>
				<path fill="#FFFFFF" d="M10.91,305.581c-0.439,4.656-1.002,10.418,3.125,13.738c4.102,3.297,9.256,0.477,13.489,2.422
					c-1.286-4.668-0.885-8.75-5.87-10.604c-3.892-1.445-7.132-2.299-10.728-4.496"/>
				<path fill="#FFFFFF" d="M21.701,325.864c0.788,4.609,1.741,10.318,6.592,12.451c4.818,2.117,9.059-1.949,13.655-1.172
					c-2.457-4.172-3.133-8.219-8.428-8.709c-4.134-0.385-7.485-0.367-11.529-1.551"/>
			</g>
			<g>
				<g>
					<linearGradient id="SVGID_7_" gradientUnits="userSpaceOnUse" x1="299.9233" y1="464.4346" x2="347.2925" y2="464.4346">
						<stop  offset="0" style="stop-color:#232323"/>
						<stop  offset="1" style="stop-color:#232323"/>
					</linearGradient>
					<path fill="url(#SVGID_7_)" d="M323.455,496.303c-13.277,0-22.141-5.361-22.686-5.701l-0.846-0.525l14.707-54.99l2.59,0.693
						l-14.178,53.016c3.895,2.025,20.533,9.42,40.867,0.287l-20.961-55.57l2.508-0.945l21.836,57.887l-1.111,0.531
						C337.83,494.961,330.089,496.301,323.455,496.303z"/>
				</g>
				<g>
					
						<linearGradient id="SVGID_8_" gradientUnits="userSpaceOnUse" x1="229.1802" y1="471.875" x2="253.3911" y2="539.6657" gradientTransform="matrix(0.9046 -0.4262 0.4262 0.9046 -103.3481 89.0887)">
						<stop  offset="0" style="stop-color:#232323"/>
						<stop  offset="1" style="stop-color:#232323"/>
					</linearGradient>
					<path fill="url(#SVGID_8_)" d="M333.669,435.27c0.012,0.074,0.012,0.15,0.021,0.225l26.086-3.861
						c-1.197-8.078-8.713-13.658-16.793-12.461c-0.211,0.027-0.416,0.068-0.623,0.107l-18.51,2.74l0.637,4.334
						C329.091,426.906,332.958,430.467,333.669,435.27z M318.367,400.627c-8.08,1.195-13.66,8.715-12.463,16.797
						c0.029,0.207,0.068,0.414,0.109,0.619l2.738,18.514l3.988-0.592c0.385-4.779,4.016-8.85,8.957-9.582
						c0.16-0.025,0.318-0.029,0.477-0.047L318.367,400.627z M338.388,437.115l-4.664,0.691c-0.441,4.662-3.971,8.613-8.775,9.4
						l3.822,25.836c8.08-1.195,13.66-8.715,12.463-16.791c-0.031-0.211-0.066-0.42-0.107-0.623L338.388,437.115z M312.812,438.357
						c-0.006-0.029-0.006-0.059-0.008-0.084l-25.443,3.766c1.195,8.078,8.715,13.66,16.795,12.461
						c0.209-0.029,0.416-0.068,0.621-0.105l18.512-2.74l-0.637-4.316C317.759,447.066,313.556,443.387,312.812,438.357z"/>
					
						<linearGradient id="SVGID_9_" gradientUnits="userSpaceOnUse" x1="219.0063" y1="468.3398" x2="241.8994" y2="502.6793" gradientTransform="matrix(0.9046 -0.4262 0.4262 0.9046 -103.3481 89.0887)">
						<stop  offset="0" style="stop-color:#232323"/>
						<stop  offset="1" style="stop-color:#232323"/>
					</linearGradient>
					<circle fill="url(#SVGID_9_)" cx="323.24" cy="436.813" r="8.656"/>
					
						<linearGradient id="SVGID_10_" gradientUnits="userSpaceOnUse" x1="227.064" y1="477.0186" x2="247.7535" y2="580.4668" gradientTransform="matrix(0.9046 -0.4262 0.4262 0.9046 -103.3481 89.0887)">
						<stop  offset="0" style="stop-color:#232323"/>
						<stop  offset="1" style="stop-color:#232323"/>
					</linearGradient>
					<path fill="url(#SVGID_10_)" d="M312.812,438.357c-0.006-0.029-0.006-0.059-0.008-0.084l-25.443,3.766
						c0.342,2.314,1.207,4.422,2.451,6.225c8.252,1.967,17.201,1.258,25.471-2.639c0.441-0.209,0.869-0.432,1.301-0.654
						C314.619,443.365,313.212,441.059,312.812,438.357z M305.904,417.424c0.029,0.207,0.068,0.414,0.109,0.619l2.738,18.514
						l3.988-0.592c0.385-4.779,4.016-8.85,8.957-9.582c0.16-0.025,0.318-0.029,0.477-0.047l-3.807-25.709
						C310.287,401.822,304.707,409.342,305.904,417.424z M323.851,422.02l0.637,4.334c2.984,0.357,5.654,1.984,7.361,4.391
						c2-3.289,3.504-6.854,4.459-10.57L323.851,422.02z"/>
					
						<linearGradient id="SVGID_11_" gradientUnits="userSpaceOnUse" x1="176.3403" y1="519.7617" x2="259.4912" y2="522.128" gradientTransform="matrix(0.9046 -0.4262 0.4262 0.9046 -103.3481 89.0887)">
						<stop  offset="0" style="stop-color:#232323"/>
						<stop  offset="1" style="stop-color:#232323"/>
					</linearGradient>
					<path fill="url(#SVGID_11_)" d="M347.154,453.66c-0.512,0.1-0.846,0.596-0.744,1.105l-0.002-0.002
						c0.045,0.229,0.082,0.465,0.119,0.703c1.33,8.982-3.527,17.488-11.346,21.172c-1.74,0.82-3.627,1.4-5.627,1.697
						c-0.516,0.078-0.871,0.559-0.793,1.074c0.074,0.516,0.555,0.871,1.07,0.795c2.184-0.322,4.25-0.959,6.152-1.857
						c8.559-4.033,13.863-13.326,12.41-23.156c-0.037-0.262-0.082-0.525-0.133-0.785
						C348.162,453.895,347.666,453.559,347.154,453.66z M341.488,436.566c-0.516,0.078-0.871,0.559-0.797,1.074l2.609,17.615
						l0.004,0.033c0.041,0.217,0.078,0.432,0.109,0.639c1.125,7.58-2.975,14.754-9.572,17.863c-1.467,0.691-3.063,1.184-4.748,1.432
						c-0.516,0.078-0.869,0.557-0.795,1.072c0.078,0.516,0.557,0.873,1.072,0.797c1.871-0.277,3.643-0.824,5.273-1.594
						c7.338-3.455,11.883-11.422,10.637-19.846c-0.035-0.242-0.076-0.473-0.119-0.693l-2.604-17.594
						C342.484,436.848,342.001,436.492,341.488,436.566z"/>
					
						<linearGradient id="SVGID_12_" gradientUnits="userSpaceOnUse" x1="207.4858" y1="447.4629" x2="213.629" y2="509.2901" gradientTransform="matrix(0.9046 -0.4262 0.4262 0.9046 -103.3481 89.0887)">
						<stop  offset="0" style="stop-color:#232323"/>
						<stop  offset="1" style="stop-color:#232323"/>
					</linearGradient>
					<path fill="url(#SVGID_12_)" d="M305.656,459.674L305.656,459.674c-0.244,0.041-0.484,0.086-0.717,0.119
						c-8.984,1.334-17.488-3.523-21.174-11.344c-0.82-1.74-1.402-3.627-1.697-5.627c-0.076-0.516-0.557-0.871-1.072-0.797
						c-0.516,0.076-0.871,0.555-0.795,1.07c0.322,2.186,0.959,4.254,1.855,6.158c4.033,8.559,13.328,13.861,23.158,12.408
						c0.268-0.039,0.529-0.086,0.779-0.133c0.084-0.014,0.162-0.039,0.234-0.074c0.377-0.178,0.604-0.592,0.525-1.023
						C306.662,459.92,306.169,459.578,305.656,459.674z M322.765,453.959l-17.615,2.605c-0.25,0.049-0.465,0.086-0.674,0.117
						c-7.578,1.125-14.754-2.977-17.861-9.572c-0.693-1.467-1.186-3.059-1.434-4.748c-0.076-0.516-0.555-0.873-1.07-0.795
						c-0.518,0.076-0.875,0.555-0.797,1.072c0.277,1.871,0.82,3.643,1.592,5.275c3.453,7.336,11.42,11.881,19.848,10.635
						c0.244-0.035,0.482-0.08,0.705-0.121l17.582-2.602c0.096-0.016,0.184-0.041,0.266-0.08c0.367-0.172,0.594-0.57,0.531-0.992
						C323.759,454.238,323.281,453.883,322.765,453.959z"/>
					
						<linearGradient id="SVGID_13_" gradientUnits="userSpaceOnUse" x1="282.5981" y1="459.7607" x2="219.9796" y2="474.2266" gradientTransform="matrix(0.9046 -0.4262 0.4262 0.9046 -103.3481 89.0887)">
						<stop  offset="0" style="stop-color:#232323"/>
						<stop  offset="1" style="stop-color:#232323"/>
					</linearGradient>
					<path fill="url(#SVGID_13_)" d="M317.308,393.467c-2.189,0.324-4.254,0.959-6.156,1.855
						c-8.559,4.033-13.861,13.326-12.41,23.158c0.041,0.268,0.086,0.531,0.131,0.783c0.096,0.512,0.588,0.852,1.102,0.758
						c0.08-0.014,0.158-0.039,0.232-0.074c0.377-0.178,0.604-0.594,0.525-1.023c-0.045-0.244-0.086-0.486-0.123-0.721
						c-1.33-8.98,3.525-17.486,11.348-21.172c1.738-0.818,3.625-1.4,5.627-1.695c0.516-0.078,0.869-0.557,0.795-1.074
						C318.302,393.746,317.822,393.393,317.308,393.467z M317.769,396.58c-1.875,0.277-3.646,0.822-5.277,1.592
						c-7.338,3.455-11.879,11.42-10.633,19.848c0.031,0.234,0.072,0.459,0.111,0.674l2.607,17.615
						c0.074,0.516,0.557,0.871,1.07,0.795c0.096-0.014,0.184-0.041,0.266-0.08c0.367-0.174,0.596-0.57,0.531-0.992l-2.605-17.613
						l-0.006-0.033c-0.041-0.217-0.078-0.432-0.111-0.641c-1.123-7.58,2.975-14.756,9.574-17.865
						c1.467-0.689,3.059-1.182,4.746-1.432c0.518-0.076,0.875-0.555,0.797-1.07C318.763,396.861,318.283,396.504,317.769,396.58z"/>
					
						<linearGradient id="SVGID_14_" gradientUnits="userSpaceOnUse" x1="255.1646" y1="528.6836" x2="265.3701" y2="482.6104" gradientTransform="matrix(0.9046 -0.4262 0.4262 0.9046 -103.3481 89.0887)">
						<stop  offset="0" style="stop-color:#232323"/>
						<stop  offset="1" style="stop-color:#232323"/>
					</linearGradient>
					<path fill="url(#SVGID_14_)" d="M341.923,412.01c-0.268,0.041-0.531,0.086-0.787,0.133c-0.512,0.098-0.85,0.59-0.752,1.102
						c0.096,0.512,0.59,0.85,1.104,0.756h-0.002c0.242-0.045,0.48-0.088,0.715-0.123c8.98-1.33,17.484,3.525,21.17,11.346
						c0.818,1.74,1.402,3.627,1.699,5.627c0.076,0.516,0.557,0.873,1.072,0.795c0.092-0.014,0.182-0.039,0.264-0.08
						c0.367-0.17,0.594-0.568,0.529-0.992c-0.322-2.184-0.961-4.25-1.857-6.154C361.044,415.859,351.753,410.557,341.923,412.01z
						 M342.386,415.121c-0.248,0.037-0.484,0.082-0.707,0.123l-17.582,2.6c-0.516,0.078-0.873,0.559-0.795,1.072
						c0.074,0.518,0.555,0.875,1.072,0.797l17.613-2.607c0.254-0.045,0.467-0.086,0.674-0.115
						c7.578-1.123,14.752,2.975,17.861,9.574c0.691,1.467,1.182,3.057,1.434,4.746c0.076,0.516,0.557,0.871,1.072,0.797
						c0.094-0.014,0.182-0.043,0.264-0.08c0.367-0.174,0.596-0.572,0.533-0.992c-0.281-1.873-0.826-3.645-1.596-5.275
						C358.775,418.424,350.81,413.879,342.386,415.121z"/>
				</g>
				<linearGradient id="SVGID_15_" gradientUnits="userSpaceOnUse" x1="315.2202" y1="484.8193" x2="331.3218" y2="484.8193">
					<stop  offset="0" style="stop-color:#232323"/>
					<stop  offset="1" style="stop-color:#232323"/>
				</linearGradient>
				<path fill="url(#SVGID_15_)" d="M315.22,489.412c0,0,5.439,3.754,16.102,0.5c0,0-0.434-11.514-7.832-11.514
					C323.49,478.398,316.96,479.15,315.22,489.412z"/>
			</g>
			<g>
				<linearGradient id="SVGID_16_" gradientUnits="userSpaceOnUse" x1="290.3638" y1="311.3086" x2="355.6704" y2="311.3086">
					<stop  offset="0" style="stop-color:#232323"/>
					<stop  offset="1" style="stop-color:#232323"/>
				</linearGradient>
				<path fill="url(#SVGID_16_)" d="M355.388,347.479c-0.768-2.838-3.459-5.51-4.871-8.063c-1.592-2.887-1.768-4.936-1.768-8.365
					c0-7.727-0.789-14.184-5.119-20.789c-3.938-6.006-7.938-7.184-13.988-10.303c-7.006-3.609-1.805-7.582,3.688-8.389
					c2.576-0.379,6.02-0.123,7.301-2.834c2.393-5.061-2.508-5.801-5.908-6.008c-0.125-2.369-0.355-5.775-2.055-7.676
					c-2.393-2.678-5.221-1.422-8.053-2.332c-3.641-1.166-8.863-9.801-13.668-3.275c-3.33,4.52,5.494,9.865-0.412,11.658
					c-2.025,0.613-5.391-1.264-7.055-0.352c-2.004,1.1-1.445,4.227,0.309,5.379c-1.691,2.068-5.572,5.58-0.629,7.049
					c2.799,0.832,6.465-2.939,8.381,0.326c0,0,7.039,0.336,4.357,7.041c0,0-5.547,4.189-9.813,6.285
					c-5.857,2.877-7.311,6.695-8.215,13.158c-0.779,5.568-0.836,11.223-1.732,16.76c-0.406,2.5-1.248,4.605-2.617,6.779
					c-1.258,1.998-4.084,4.008-2.854,6.646c2.121,4.564,11.471,4.008,15.426,4.008c6.785,0,13.564,0.348,20.271,0.334
					C332.179,354.504,358.683,359.652,355.388,347.479z M329.56,339.014c-2.664,0.611-9.566,2.135-11.256-1.24
					c-1.367-2.727,2.348-5.369,3.627-7.131c1.707-2.35,3.586-5.182,0.672-7.057c-2.584-1.662-6.313,0.225-9.051-0.832
					c-9.402-3.625,2.666-12.816,8.379-12.486l0.336,0.336c3.168-0.441,6.172,4.08,6.713,6.705c0.547,2.639-0.715,3.848,1.652,5.779
					c1.533,1.256,4.014,1.439,5.723,2.602C345.917,332.189,336.746,337.365,329.56,339.014z"/>
			</g>
			<g>
				<linearGradient id="SVGID_17_" gradientUnits="userSpaceOnUse" x1="13.8481" y1="68.6611" x2="32.8262" y2="68.6611">
					<stop  offset="0" style="stop-color:#232323"/>
					<stop  offset="1" style="stop-color:#232323"/>
				</linearGradient>
				<path fill="url(#SVGID_17_)" d="M29.165,81.31c-12.816,1.58-13.997-17.367-15.317-25.392
					c9.853,1.406,23.79,15.249,17.329,24.721"/>
				<linearGradient id="SVGID_18_" gradientUnits="userSpaceOnUse" x1="15.1895" y1="47.877" x2="34.167" y2="47.877">
					<stop  offset="0" style="stop-color:#232323"/>
					<stop  offset="1" style="stop-color:#232323"/>
				</linearGradient>
				<path fill="url(#SVGID_18_)" d="M30.506,60.526c-12.816,1.58-13.997-17.366-15.316-25.391
					c9.852,1.405,23.79,15.249,17.328,24.721"/>
				<linearGradient id="SVGID_19_" gradientUnits="userSpaceOnUse" x1="18.0977" y1="27.5557" x2="33.1563" y2="27.5557">
					<stop  offset="0" style="stop-color:#232323"/>
					<stop  offset="1" style="stop-color:#232323"/>
				</linearGradient>
				<path fill="url(#SVGID_19_)" d="M30.251,37.592c-10.17,1.253-11.106-13.78-12.154-20.146c7.817,1.114,18.877,12.1,13.75,19.615"
					/>
				
					<linearGradient id="SVGID_20_" gradientUnits="userSpaceOnUse" x1="-88.5552" y1="127.9468" x2="-70.8174" y2="127.9468" gradientTransform="matrix(0.3199 0.9475 -0.9475 0.3199 192.067 66.4739)">
					<stop  offset="0" style="stop-color:#232323"/>
					<stop  offset="1" style="stop-color:#232323"/>
				</linearGradient>
				<path fill="url(#SVGID_20_)" d="M35.887,40.846c-5.231-10.878,11.195-17.588,17.906-21.156
					c1.702,9.144-6.392,25.626-16.712,22.737"/>
				
					<linearGradient id="SVGID_21_" gradientUnits="userSpaceOnUse" x1="-69.4839" y1="134.6035" x2="-52.3975" y2="134.6035" gradientTransform="matrix(0.3199 0.9475 -0.9475 0.3199 192.067 66.4739)">
					<stop  offset="0" style="stop-color:#232323"/>
					<stop  offset="1" style="stop-color:#232323"/>
				</linearGradient>
				<path fill="url(#SVGID_21_)" d="M35.924,60.409C30.885,49.93,46.707,43.468,53.172,40.029
					c1.639,8.809-6.157,24.686-16.098,21.902"/>
				
					<linearGradient id="SVGID_22_" gradientUnits="userSpaceOnUse" x1="-51.4966" y1="143.3672" x2="-31.873" y2="143.3672" gradientTransform="matrix(0.3199 0.9475 -0.9475 0.3199 192.067 66.4739)">
					<stop  offset="0" style="stop-color:#232323"/>
					<stop  offset="1" style="stop-color:#232323"/>
				</linearGradient>
				<path fill="url(#SVGID_22_)" d="M32.427,82.736c-5.788-12.035,12.385-19.457,19.81-23.406
					c1.882,10.117-7.071,28.351-18.488,25.154"/>
				
					<linearGradient id="SVGID_23_" gradientUnits="userSpaceOnUse" x1="-47.6802" y1="44.2456" x2="-32.6226" y2="44.2456" gradientTransform="matrix(0.8233 0.5676 -0.5676 0.8233 94.8652 2.6777)">
					<stop  offset="0" style="stop-color:#232323"/>
					<stop  offset="1" style="stop-color:#232323"/>
				</linearGradient>
				<path fill="url(#SVGID_23_)" d="M34.805,27.204c-9.084-4.741-1.321-17.649,1.431-23.486c5.802,5.355,8.671,20.677,0.184,23.954"
					/>
			</g>
			<g>
				<g>
					<linearGradient id="SVGID_24_" gradientUnits="userSpaceOnUse" x1="-9.0562" y1="182.3076" x2="71.145" y2="182.3076">
						<stop  offset="0" style="stop-color:#232323"/>
						<stop  offset="1" style="stop-color:#232323"/>
					</linearGradient>
					<path fill="url(#SVGID_24_)" d="M29.09,209.852c-0.936,0.6-1.889,1.167-2.876,1.696l-1.512,0.727l-1.572,0.607
						c-0.542,0.15-1.084,0.313-1.632,0.454c-0.559,0.091-1.12,0.192-1.684,0.261c-0.567,0.021-1.138,0.059-1.708,0.063l-1.71-0.136
						c-0.187-0.016-0.333-0.158-0.358-0.336l-0.009-0.068c-0.041-0.285-0.106-0.568-0.207-0.854l-0.364-0.895
						c-0.129-0.316-0.25-0.655-0.336-1.017c-0.085-0.367-0.106-0.745-0.104-1.128l0.808,0.526c-1.679,0.91-3.426,1.498-5.219,1.986
						c-1.796,0.47-3.638,0.812-5.564,0.825c-0.961,0-1.949-0.079-2.953-0.383c-0.5-0.153-1.003-0.377-1.476-0.697
						c-0.466-0.329-0.91-0.752-1.213-1.277c-0.321-0.515-0.486-1.093-0.572-1.655c-0.069-0.561-0.051-1.1,0.002-1.626
						c0.081-0.51,0.174-1.017,0.323-1.49c0.119-0.493,0.319-0.929,0.478-1.396l1.017,1.538c-0.588-0.005-1.177-0.044-1.763-0.158
						c-0.583-0.121-1.153-0.294-1.699-0.532c-1.091-0.472-2.065-1.173-2.878-2c-1.629-1.666-2.674-3.777-3.135-6.027
						c-0.228-1.127-0.299-2.303-0.148-3.492c0.069-0.593,0.21-1.189,0.41-1.776c0.199-0.587,0.487-1.157,0.83-1.7
						c0.372-0.529,0.8-1.031,1.311-1.446c0.507-0.416,1.073-0.766,1.665-1.01c0.59-0.262,1.207-0.425,1.813-0.527
						c0.612-0.113,1.208-0.126,1.806-0.141l-1.563,1.661c-0.075-0.627-0.259-1.391-0.457-2.153l-0.613-2.377
						c-0.377-1.64-0.78-3.34-0.614-5.356c0.1-0.996,0.404-2.148,1.184-3.138c0.399-0.473,0.88-0.897,1.4-1.182
						c0.514-0.302,1.054-0.501,1.566-0.622c0.522-0.143,1.016-0.19,1.507-0.234c0.484-0.027,0.963-0.036,1.419-0.004
						c0.927,0.04,1.796,0.181,2.661,0.333l-2.07,2.097c-0.161-0.792-0.312-1.587-0.401-2.402c-0.064-0.401-0.065-0.822-0.1-1.232
						c-0.038-0.41-0.02-0.834-0.017-1.255c0.015-0.843,0.102-1.707,0.301-2.581c0.066-0.434,0.245-0.878,0.384-1.315
						c0.138-0.438,0.398-0.872,0.605-1.302c0.275-0.414,0.554-0.839,0.901-1.214c0.377-0.354,0.724-0.75,1.185-1.007l0.665-0.413
						c0.23-0.11,0.47-0.196,0.708-0.291c0.479-0.212,0.955-0.301,1.436-0.383c0.488-0.115,0.943-0.106,1.408-0.119
						c0.473-0.029,0.912,0.016,1.346,0.073c0.439,0.05,0.885,0.091,1.286,0.202l1.238,0.291l-2.181,2.826
						c-0.265-0.476-0.536-0.946-0.733-1.474c-0.208-0.515-0.374-1.067-0.466-1.636c-0.208-1.134-0.16-2.342,0.145-3.46
						c0.301-1.121,0.841-2.147,1.52-3.026c0.681-0.88,1.5-1.622,2.408-2.22c1.81-1.176,4.042-1.878,6.431-1.497
						c0.592,0.102,1.18,0.28,1.744,0.531c0.559,0.265,1.092,0.592,1.562,0.989c0.471,0.396,0.88,0.848,1.229,1.326
						c0.35,0.48,0.615,0.984,0.863,1.495l-3.791,0.726l0.203-1.749c0.03-0.582,0.292-1.163,0.44-1.741
						c0.137-0.587,0.438-1.137,0.726-1.688c0.252-0.567,0.642-1.069,1.046-1.562c0.364-0.521,0.868-0.93,1.363-1.343
						c0.465-0.449,1.082-0.708,1.644-1.032c0.571-0.31,1.232-0.443,1.852-0.646c0.649-0.082,1.313-0.186,1.971-0.156
						c0.658,0.086,1.335,0.076,1.96,0.33l0.945,0.32c0.309,0.121,0.584,0.314,0.874,0.474c0.281,0.176,0.582,0.33,0.837,0.534
						l0.722,0.664c0.515,0.425,0.852,0.965,1.218,1.489c0.403,0.513,0.606,1.091,0.859,1.655c0.28,0.564,0.42,1.142,0.542,1.721
						c0.132,0.579,0.286,1.162,0.291,1.729l0.105,1.715l-2.284-1.963c1.199-0.186,2.437-0.355,3.731-0.416
						c0.649-0.026,1.31-0.03,1.992,0.011c0.685,0.046,1.392,0.145,2.121,0.326c0.367,0.098,0.747,0.246,1.116,0.377
						c0.377,0.198,0.757,0.37,1.117,0.628c0.35,0.293,0.73,0.534,1.01,0.923c0.304,0.36,0.58,0.737,0.751,1.16
						c0.097,0.208,0.194,0.417,0.277,0.626l0.15,0.621l0.13,0.625l0.027,0.584c0.012,0.389,0.037,0.792-0.022,1.137l-0.131,1.073
						l-2.341-2.229l1.349-0.237c0.452-0.048,0.904-0.07,1.355-0.102c0.904-0.013,1.81,0.044,2.706,0.195
						c0.449,0.058,0.893,0.199,1.336,0.299c0.445,0.1,0.879,0.297,1.316,0.447c0.437,0.155,0.856,0.41,1.28,0.618
						c0.42,0.229,0.817,0.542,1.219,0.82c0.378,0.335,0.755,0.685,1.098,1.07c0.299,0.441,0.664,0.828,0.873,1.336
						c0.227,0.497,0.465,0.99,0.542,1.535l0.15,0.802v0.794c-0.01,0.262-0.002,0.535-0.039,0.786l-0.158,0.738l-0.177,0.73
						l-0.271,0.659c-0.186,0.436-0.356,0.892-0.608,1.258l-0.709,1.156l-1.758-2.779l1.22-0.093
						c0.406-0.018,0.822,0.051,1.232,0.083c0.411,0.024,0.809,0.179,1.211,0.274c0.409,0.085,0.772,0.305,1.155,0.463
						c0.389,0.152,0.712,0.422,1.063,0.64c0.358,0.212,0.632,0.53,0.945,0.796c0.313,0.27,0.542,0.621,0.808,0.934
						c0.259,0.32,0.44,0.698,0.653,1.049c0.193,0.364,0.326,0.765,0.479,1.149c0.119,0.4,0.197,0.816,0.285,1.225
						c0.025,0.425,0.066,0.85,0.052,1.274c-0.056,0.426-0.079,0.859-0.192,1.273c-0.138,0.407-0.229,0.837-0.433,1.212
						c-0.211,0.368-0.381,0.776-0.648,1.096c-0.267,0.318-0.515,0.669-0.814,0.943l-0.927,0.783l-0.305-2.801
						c0.802,0.386,1.535,0.831,2.209,1.326c0.669,0.5,1.288,1.049,1.877,1.623c0.571,0.595,1.113,1.22,1.604,1.895
						c0.246,0.336,0.461,0.707,0.688,1.06c0.224,0.358,0.396,0.769,0.591,1.152c0.187,0.393,0.307,0.846,0.453,1.267
						c0.117,0.444,0.173,0.932,0.24,1.399c-0.031,0.505,0.008,1.008-0.13,1.513c-0.154,0.501-0.265,1.026-0.583,1.45l-0.43,0.654
						c-0.16,0.195-0.351,0.349-0.529,0.521l-0.552,0.491c-0.195,0.126-0.395,0.234-0.593,0.349
						c-0.397,0.222-0.797,0.472-1.202,0.582l-1.215,0.414l0.441-2.422l1.014,0.879c0.349,0.269,0.647,0.641,0.945,1.004l0.445,0.544
						c0.138,0.197,0.246,0.431,0.367,0.647l0.344,0.663c0.092,0.237,0.144,0.505,0.212,0.757c0.051,0.259,0.146,0.506,0.146,0.774
						l-0.016,0.808c0.017,0.545-0.232,1.03-0.363,1.536c-0.229,0.444-0.468,0.905-0.759,1.288c-0.32,0.348-0.602,0.765-0.966,1.037
						c-0.355,0.289-0.69,0.619-1.077,0.837c-0.378,0.235-0.744,0.502-1.146,0.677c-0.397,0.185-0.779,0.41-1.193,0.543
						c-0.41,0.14-0.807,0.326-1.229,0.423c-0.829,0.247-1.68,0.402-2.538,0.508l-1.3,0.074l-1.311-0.073L59,207.267
						c-0.033,0.347-0.065,0.694-0.115,1.035c-0.092,0.328-0.177,0.661-0.285,0.981c-0.138,0.303-0.27,0.613-0.423,0.907
						c-0.177,0.276-0.347,0.559-0.533,0.825l-0.621,0.745l-0.692,0.663c-0.494,0.405-1.012,0.77-1.566,1.079
						c-0.561,0.297-1.145,0.545-1.757,0.726c-0.614,0.172-1.25,0.274-1.9,0.289c-0.323,0.009-0.652-0.042-0.976-0.065
						c-0.322-0.052-0.642-0.154-0.958-0.233c-0.306-0.123-0.604-0.273-0.901-0.413l-0.798-0.58l0.928-0.195
						c-0.211,0.358-0.388,0.729-0.627,1.074c-0.22,0.354-0.471,0.691-0.738,1.018c-0.545,0.644-1.201,1.241-2.01,1.617
						c-0.801,0.391-1.756,0.474-2.601,0.264c-0.852-0.198-1.603-0.617-2.261-1.113c-1.313-1.008-2.3-2.317-3.135-3.678
						c-0.824-1.372-1.5-2.835-1.907-4.371c0.519,1.5,1.294,2.896,2.198,4.179c0.909,1.278,1.984,2.454,3.241,3.317
						c0.629,0.423,1.319,0.749,2.024,0.871c0.705,0.131,1.415,0.025,2.025-0.315c0.617-0.33,1.14-0.85,1.583-1.437
						c0.219-0.3,0.425-0.61,0.606-0.943c0.199-0.316,0.344-0.676,0.519-1.01c0.157-0.299,0.526-0.415,0.826-0.259l0.047,0.028
						l0.055,0.036l0.629,0.405l0.692,0.27c0.248,0.041,0.486,0.108,0.733,0.135c0.254-0.002,0.502,0.03,0.756,0.008
						c0.508-0.042,1.01-0.149,1.503-0.316c0.49-0.175,0.958-0.407,1.408-0.675c0.444-0.281,0.851-0.605,1.237-0.956l0.529-0.567
						l0.457-0.614l0.372-0.653l0.272-0.681L57,207.968l0.039-0.693c0.03-0.554,0.49-0.982,1.039-0.981h0.034l1.085,0.005
						l1.092-0.107c0.726-0.121,1.445-0.281,2.143-0.519c0.356-0.094,0.681-0.271,1.022-0.399c0.347-0.123,0.647-0.326,0.971-0.489
						c0.33-0.155,0.6-0.383,0.894-0.578c0.311-0.185,0.529-0.443,0.79-0.664c0.277-0.214,0.417-0.5,0.639-0.739
						c0.18-0.256,0.289-0.53,0.428-0.788c0.021-0.273,0.198-0.527,0.143-0.794c-0.001-0.261,0.013-0.522-0.107-0.783
						c-0.044-0.13-0.06-0.263-0.116-0.394l-0.236-0.387c-0.081-0.129-0.136-0.264-0.233-0.391l-0.336-0.365
						c-0.221-0.245-0.422-0.501-0.725-0.708l-0.825-0.664c-0.603-0.484-0.698-1.365-0.212-1.968
						c0.158-0.198,0.361-0.342,0.584-0.428l0.069-0.026l0.896-0.343c0.322-0.089,0.543-0.269,0.796-0.413l0.372-0.219l0.268-0.272
						c0.086-0.09,0.198-0.167,0.27-0.261c0.051-0.103,0.104-0.201,0.165-0.295c0.162-0.173,0.151-0.416,0.232-0.619
						c0.067-0.213,0.006-0.478,0.043-0.713c-0.065-0.266-0.09-0.527-0.168-0.801c-0.12-0.275-0.183-0.555-0.329-0.832
						c-0.157-0.274-0.273-0.559-0.456-0.828c-0.188-0.266-0.353-0.543-0.555-0.802c-0.404-0.524-0.858-1.014-1.334-1.486
						c-0.497-0.453-1.007-0.883-1.548-1.263c-0.544-0.375-1.1-0.684-1.652-0.936c-0.821-0.375-1.183-1.345-0.808-2.167
						c0.094-0.206,0.227-0.383,0.384-0.526l0.119-0.108l0.53-0.48c0.173-0.161,0.277-0.359,0.428-0.527
						c0.149-0.171,0.196-0.387,0.313-0.569c0.108-0.188,0.118-0.409,0.197-0.604c0.054-0.205,0.038-0.425,0.076-0.634l-0.038-0.65
						l-0.167-0.647c-0.102-0.205-0.163-0.424-0.276-0.624c-0.135-0.188-0.222-0.404-0.376-0.577
						c-0.163-0.165-0.276-0.374-0.462-0.513c-0.186-0.136-0.325-0.333-0.536-0.433c-0.202-0.105-0.37-0.276-0.591-0.341
						c-0.216-0.07-0.404-0.214-0.636-0.24c-0.226-0.035-0.432-0.143-0.667-0.138c-0.23-0.002-0.455-0.055-0.69-0.036l-0.703,0.063
						c-1.016,0.092-1.915-0.659-2.006-1.675c-0.036-0.397,0.057-0.777,0.244-1.097l0.005-0.007l0.5-0.857
						c0.197-0.282,0.275-0.573,0.396-0.856l0.177-0.426l0.081-0.415l0.092-0.409c0.018-0.133-0.005-0.256,0-0.384l0.009-0.379
						c-0.035-0.115-0.064-0.231-0.088-0.347c-0.015-0.243-0.154-0.446-0.246-0.664c-0.071-0.229-0.294-0.399-0.414-0.616
						c-0.184-0.188-0.39-0.369-0.592-0.554c-0.253-0.149-0.468-0.335-0.738-0.473c-0.284-0.121-0.533-0.288-0.839-0.384
						c-0.306-0.091-0.587-0.23-0.91-0.291c-0.321-0.059-0.627-0.164-0.956-0.195c-0.651-0.099-1.312-0.123-1.972-0.111l-0.985,0.08
						l-0.963,0.174c-1.088,0.196-2.128-0.527-2.325-1.615c-0.034-0.191-0.041-0.38-0.021-0.564l0.005-0.05l0.076-0.686
						c0.049-0.241,0.013-0.43,0.009-0.631l-0.004-0.301L46.75,161.3l-0.046-0.242l-0.096-0.179
						c-0.035-0.138-0.128-0.224-0.205-0.317c-0.044-0.117-0.207-0.164-0.292-0.267c-0.115-0.087-0.288-0.147-0.424-0.238
						c-0.192-0.053-0.363-0.128-0.564-0.183c-0.419-0.098-0.883-0.166-1.377-0.197c-0.499-0.026-1.019-0.021-1.551,0.003
						c-1.067,0.056-2.173,0.208-3.308,0.392c-1.07,0.173-2.078-0.554-2.25-1.625c-0.009-0.056-0.016-0.113-0.02-0.169l-0.013-0.168
						l-0.092-1.274c0.007-0.439-0.121-0.821-0.211-1.214c-0.082-0.4-0.17-0.796-0.356-1.125c-0.161-0.342-0.271-0.728-0.516-0.99
						c-0.213-0.288-0.387-0.62-0.671-0.815l-0.374-0.356c-0.131-0.108-0.292-0.166-0.432-0.257
						c-0.148-0.076-0.276-0.193-0.435-0.246l-0.475-0.148c-0.302-0.157-0.656-0.093-0.981-0.166
						c-0.334-0.015-0.67,0.063-1.005,0.082c-0.316,0.137-0.667,0.162-0.968,0.34c-0.288,0.193-0.639,0.281-0.884,0.553
						c-0.267,0.231-0.564,0.429-0.762,0.747c-0.232,0.28-0.474,0.554-0.617,0.914c-0.172,0.335-0.378,0.652-0.457,1.05
						c-0.085,0.389-0.292,0.727-0.299,1.153l-0.156,1.225l-0.009,0.076c-0.14,1.098-1.144,1.876-2.243,1.736
						c-0.683-0.086-1.247-0.518-1.539-1.087c-0.142-0.281-0.281-0.56-0.452-0.793c-0.17-0.235-0.355-0.44-0.558-0.614
						c-0.202-0.174-0.426-0.309-0.66-0.428c-0.242-0.106-0.5-0.19-0.778-0.241c-1.113-0.2-2.499,0.152-3.624,0.89
						c-1.134,0.73-2.011,1.833-2.324,2.993c-0.161,0.581-0.189,1.177-0.085,1.776c0.045,0.3,0.132,0.602,0.254,0.902
						c0.102,0.303,0.272,0.598,0.425,0.898l0.028,0.058c0.486,0.96,0.103,2.131-0.857,2.617c-0.435,0.22-0.914,0.26-1.353,0.152
						l-0.946-0.237c-0.32-0.101-0.622-0.121-0.929-0.163c-0.308-0.049-0.613-0.089-0.891-0.067c-0.286,0.004-0.584-0.02-0.828,0.05
						c-0.259,0.04-0.523,0.072-0.73,0.177l-0.338,0.119l-0.288,0.183c-0.216,0.087-0.348,0.291-0.533,0.428
						c-0.162,0.167-0.294,0.381-0.446,0.577c-0.105,0.25-0.265,0.451-0.35,0.729c-0.084,0.277-0.212,0.524-0.258,0.835
						c-0.144,0.583-0.225,1.217-0.246,1.871c-0.005,0.329-0.033,0.652-0.003,0.991c0.024,0.335,0.013,0.668,0.063,1.008
						c0.062,0.677,0.18,1.355,0.304,2.036l0.006,0.039c0.177,0.962-0.461,1.884-1.422,2.061c-0.221,0.041-0.447,0.037-0.655-0.003
						c-0.73-0.142-1.463-0.273-2.159-0.311c-0.354-0.032-0.687-0.029-1.013-0.018c-0.314,0.024-0.635,0.046-0.894,0.119
						c-0.279,0.054-0.509,0.147-0.696,0.25c-0.198,0.097-0.326,0.228-0.462,0.36c-0.237,0.288-0.427,0.746-0.505,1.354
						c-0.156,1.229,0.093,2.767,0.416,4.281l0.537,2.353c0.181,0.813,0.372,1.633,0.463,2.622c0.077,0.836-0.538,1.578-1.374,1.654
						l-0.123,0.006l-0.065,0c-0.426,0.005-0.855-0.004-1.254,0.062c-0.402,0.055-0.79,0.146-1.138,0.291
						c-0.359,0.131-0.676,0.322-0.968,0.543c-0.294,0.221-0.54,0.5-0.771,0.798c-0.208,0.32-0.402,0.658-0.541,1.038
						c-0.14,0.379-0.251,0.781-0.312,1.203c-0.13,0.84-0.113,1.735,0.026,2.619c0.285,1.769,1.068,3.507,2.26,4.819
						c0.596,0.655,1.295,1.198,2.07,1.571c0.388,0.187,0.794,0.328,1.21,0.433c0.419,0.1,0.849,0.143,1.285,0.168l0.018,0.001
						c0.629,0.037,1.108,0.576,1.07,1.205c-0.006,0.115-0.031,0.229-0.069,0.332c-0.146,0.386-0.345,0.772-0.449,1.159
						c-0.14,0.389-0.222,0.771-0.301,1.154c-0.052,0.375-0.077,0.742-0.051,1.084c0.041,0.335,0.117,0.646,0.262,0.911
						c0.529,1.107,2.292,1.59,3.956,1.657c1.704,0.084,3.474-0.136,5.204-0.492c1.724-0.366,3.468-0.858,5.022-1.597l0.012-0.005
						c0.279-0.132,0.611-0.014,0.744,0.265c0.04,0.085,0.058,0.178,0.053,0.266c-0.013,0.278-0.017,0.558,0.033,0.839
						c0.051,0.282,0.135,0.573,0.239,0.872l0.329,0.957c0.102,0.345,0.167,0.707,0.197,1.079l-0.369-0.404l1.603,0.215
						c0.538,0.026,1.079,0.018,1.622,0.029c0.539-0.035,1.077-0.11,1.621-0.157c0.534-0.097,1.068-0.216,1.606-0.323l1.576-0.48
						l1.541-0.606C27.118,210.879,28.113,210.382,29.09,209.852z"/>
				</g>
				<linearGradient id="SVGID_25_" gradientUnits="userSpaceOnUse" x1="12.9414" y1="206.1904" x2="55.1362" y2="206.1904">
					<stop  offset="0" style="stop-color:#232323"/>
					<stop  offset="1" style="stop-color:#232323"/>
				</linearGradient>
				<path fill="url(#SVGID_25_)" d="M39.147,228.624c-3.401-0.073-7.916-3.762-9.908-6.854c-3.152-4.892,0.977-9.71-0.772-13.273
					c-2.06-4.199-9.283-1.781-12.619-4.813c-3.695-3.362-3.175-10.15-2.181-14.414c1.173,10.976,5.247,10.212,13.981,13.81
					c-0.55-7.347,4.705-11.83,4.257-19.323c5.34,5.825-3.343,17.438,2.533,20.743c1.363,0.767,9.906-0.507,11.446-1.172
					c3.43-1.483,6.948-6.59,9.252-9.365c-1.772,4.308-1.198,9.215-5.412,12.386c-4.403,3.314-8.697,0.532-13.259,2.164
					c-8.72,3.117-1.355,14.239,1.341,20.111"/>
			</g>
			<g>
				<linearGradient id="SVGID_26_" gradientUnits="userSpaceOnUse" x1="9.752" y1="446.752" x2="39.7129" y2="446.752">
					<stop  offset="0" style="stop-color:#232323"/>
					<stop  offset="1" style="stop-color:#232323"/>
				</linearGradient>
				<path fill="url(#SVGID_26_)" d="M9.752,464.603c0.021-4.818,0.281-9.633,0.666-14.441c0.375-4.805,0.971-9.6,1.78-14.361
					c0.418-2.381,0.881-4.754,1.446-7.107c0.296-1.174,0.576-2.354,0.926-3.514c0.324-1.17,0.708-2.324,1.096-3.477
					c0.423-1.141,0.858-2.279,1.365-3.391s1.044-2.215,1.687-3.268c0.623-1.061,1.334-2.082,2.165-3.018
					c0.807-0.957,1.792-1.771,2.857-2.479l0.061-0.041l0.042-0.008c1.773-0.375,3.041,0.514,4.047,1.393
					c0.547,0.43,0.952,0.957,1.365,1.479c0.45,0.502,0.775,1.07,1.109,1.631c0.735,1.098,1.211,2.299,1.769,3.469
					c0.533,1.178,0.902,2.408,1.362,3.609c0.434,1.211,0.725,2.457,1.082,3.688c0.37,1.227,0.628,2.477,0.894,3.725
					c0.259,1.25,0.558,2.492,0.787,3.746l0.626,3.77c0.202,1.258,0.44,2.51,0.575,3.775l0.472,3.787
					c0.144,1.264,0.347,2.521,0.442,3.789l0.345,3.797l0.343,3.799c0.117,1.266,0.152,2.535,0.232,3.805l0.415,7.609l0.005,0.094
					l-0.029,0.076c-0.935,2.51-2.086,4.889-3.429,7.18c-1.353,2.277-2.916,4.457-4.835,6.309c-0.487,0.453-0.977,0.906-1.51,1.309
					c-0.516,0.422-1.079,0.787-1.649,1.129c-0.57,0.348-1.179,0.627-1.792,0.891c-0.628,0.23-1.262,0.434-1.921,0.555
					c-0.655,0.113-1.32,0.207-1.985,0.178c-0.666,0.025-1.327-0.092-1.976-0.199c-0.647-0.15-1.285-0.318-1.895-0.574
					c-0.63-0.201-1.193-0.559-1.789-0.83c0.609,0.246,1.183,0.578,1.817,0.748c0.615,0.23,1.256,0.367,1.896,0.488
					c0.646,0.078,1.293,0.17,1.943,0.125c0.649,0.008,1.293-0.105,1.925-0.234c0.634-0.139,1.243-0.357,1.842-0.598
					c0.585-0.275,1.166-0.563,1.706-0.918c0.544-0.352,1.076-0.721,1.565-1.146c0.504-0.406,0.966-0.863,1.426-1.318
					c1.8-1.871,3.286-4.031,4.574-6.289c1.271-2.27,2.369-4.662,3.221-7.096l-0.023,0.17l-0.564-7.582
					c-0.102-1.262-0.167-2.527-0.3-3.789l-0.368-3.779l-0.367-3.779c-0.104-1.264-0.313-2.51-0.465-3.77l-0.495-3.76
					c-0.143-1.258-0.386-2.498-0.595-3.744l-0.646-3.734c-0.235-1.238-0.537-2.465-0.803-3.697c-0.27-1.232-0.532-2.467-0.904-3.666
					c-0.365-1.201-0.642-2.436-1.055-3.617c-0.439-1.17-0.794-2.381-1.299-3.516c-0.528-1.123-0.983-2.295-1.664-3.314
					c-0.31-0.531-0.612-1.068-1.015-1.516c-0.37-0.477-0.736-0.963-1.195-1.32c-0.414-0.43-0.91-0.699-1.395-0.961
					c-0.47-0.186-1.088-0.311-1.4-0.221l0.102-0.049c-0.94,0.623-1.834,1.34-2.587,2.225c-0.772,0.859-1.454,1.818-2.053,2.828
					c-0.621,0.998-1.147,2.063-1.646,3.135c-0.499,1.078-0.931,2.186-1.351,3.299c-1.639,4.482-2.78,9.156-3.691,13.867
					c-0.902,4.715-1.557,9.48-2.111,14.258C10.388,454.993,10.002,459.794,9.752,464.603z"/>
				<linearGradient id="SVGID_27_" gradientUnits="userSpaceOnUse" x1="20.5752" y1="461.751" x2="47.2148" y2="461.751">
					<stop  offset="0" style="stop-color:#232323"/>
					<stop  offset="1" style="stop-color:#232323"/>
				</linearGradient>
				<path fill="url(#SVGID_27_)" d="M28.525,494.103c-0.358-5.996,8.623-5.672,12.233-9.219c4.958-4.869,5.555-10.758,5.195-17.596
					c-0.688-13.074-4.679-27.02,1.261-39.994c-13.595,9.666-5.611,27.559-15.504,38.486c-4.819,5.32-9.853,6.402-11.083,14.242
					c-0.643,4.102,4.681,22.297,9.237,14.08"/>
				<linearGradient id="SVGID_28_" gradientUnits="userSpaceOnUse" x1="-8.7856" y1="467.3291" x2="27.8545" y2="467.3291">
					<stop  offset="0" style="stop-color:#232323"/>
					<stop  offset="1" style="stop-color:#232323"/>
				</linearGradient>
				<path fill="url(#SVGID_28_)" d="M27.854,495.444c-9.49,2.969-7.003-2.283-10.895-7.879c-3.771-5.416-10.871-6.432-14.412-12.385
					c-3.271-5.5-1.921-13.148-3.373-19.293c-1.504-6.359-3.922-12.215-7.96-17.531c8.764,5.443,14.943,8.771,19.392,18.871
					c3.432,7.793,5.247,14.248,12.555,19.443"/>
				<linearGradient id="SVGID_29_" gradientUnits="userSpaceOnUse" x1="25.1729" y1="442.5908" x2="31.2227" y2="442.5908">
					<stop  offset="0" style="stop-color:#232323"/>
					<stop  offset="1" style="stop-color:#232323"/>
				</linearGradient>
				<path fill="url(#SVGID_29_)" d="M25.173,410.298c0,0,0.272,0.979,0.653,2.715c0.389,1.736,0.953,4.217,1.489,7.219
					c0.291,1.496,0.58,3.123,0.847,4.85c0.279,1.725,0.588,3.543,0.854,5.432c0.259,1.889,0.466,3.848,0.709,5.834
					c0.215,1.99,0.522,4.004,0.669,6.035c0.138,2.029,0.279,4.059,0.416,6.057c0.146,1.998,0.284,3.963,0.299,5.873
					c0.059,1.908,0.067,3.752,0.083,5.5c-0.004,1.748,0.085,3.4-0.03,4.926c-0.135,3.051-0.33,5.588-0.428,7.361
					c-0.127,1.773-0.199,2.785-0.199,2.785s-0.022-1.018-0.062-2.795c-0.011-1.779-0.081-4.316-0.067-7.352
					c0.047-1.52-0.117-3.164-0.192-4.904c-0.096-1.738-0.204-3.572-0.269-5.467c-0.04-1.9-0.209-3.855-0.385-5.842
					c-0.165-1.986-0.333-4.006-0.501-6.021c-0.115-2.025-0.392-4.035-0.576-6.02c-0.213-1.982-0.39-3.939-0.621-5.824
					c-0.26-1.881-0.46-3.709-0.665-5.438c-0.188-1.734-0.403-3.367-0.625-4.871c-0.22-1.506-0.391-2.891-0.543-4.119
					c-0.178-1.223-0.332-2.289-0.459-3.17C25.318,411.302,25.173,410.298,25.173,410.298z"/>
				<linearGradient id="SVGID_30_" gradientUnits="userSpaceOnUse" x1="19.0454" y1="445.9434" x2="22.9375" y2="445.9434">
					<stop  offset="0" style="stop-color:#232323"/>
					<stop  offset="1" style="stop-color:#232323"/>
				</linearGradient>
				<path fill="url(#SVGID_30_)" d="M22.938,410.745c0,0-0.376,4.404-0.94,11.016c-0.295,3.299-0.531,7.158-0.826,11.287
					c-0.122,2.066-0.297,4.199-0.385,6.369c-0.106,2.172-0.222,4.373-0.27,6.58c-0.109,2.205-0.18,4.406-0.208,6.578
					c-0.068,2.17-0.042,4.305-0.023,6.371c-0.006,2.068,0.089,4.061,0.131,5.955c0.014,1.896,0.214,3.674,0.313,5.326
					c0.087,1.654,0.318,3.146,0.458,4.484c0.079,0.668,0.15,1.293,0.219,1.873c0.093,0.572,0.209,1.092,0.298,1.566
					c0.358,1.904,0.562,2.99,0.562,2.99s-0.297-1.066-0.816-2.934c-0.122-0.469-0.276-0.986-0.409-1.557
					c-0.107-0.574-0.224-1.195-0.347-1.859c-0.237-1.332-0.576-2.828-0.717-4.486c-0.168-1.652-0.444-3.443-0.539-5.348
					c-0.122-1.902-0.317-3.908-0.317-5.988c-0.047-2.08-0.104-4.227-0.064-6.41c-0.002-2.182,0.034-4.398,0.12-6.613
					c0.077-2.217,0.225-4.426,0.361-6.604c0.118-2.176,0.322-4.313,0.474-6.383c0.347-4.139,0.83-7.984,1.235-11.279
					c0.41-3.293,0.861-6.025,1.163-7.939C22.723,411.831,22.938,410.745,22.938,410.745z"/>
				<linearGradient id="SVGID_31_" gradientUnits="userSpaceOnUse" x1="19.3613" y1="416.124" x2="30.5352" y2="416.124">
					<stop  offset="0" style="stop-color:#232323"/>
					<stop  offset="1" style="stop-color:#232323"/>
				</linearGradient>
				<path fill="url(#SVGID_31_)" d="M19.361,415.884c0,0,0.167,0.086,0.47,0.188c0.284,0.137,0.743,0.205,1.251,0.355
					c0.266,0.037,0.554,0.076,0.857,0.119c0.3,0.063,0.625,0.047,0.959,0.055c0.332,0.002,0.674,0.008,1.023,0.012
					c0.347-0.043,0.7-0.086,1.053-0.129c0.352-0.047,0.712-0.039,1.049-0.156c0.342-0.084,0.677-0.166,1.003-0.246
					c0.329-0.074,0.646-0.148,0.948-0.217c0.291-0.107,0.566-0.211,0.82-0.305c1.021-0.367,1.741-0.568,1.741-0.568
					s-0.616,0.393-1.597,0.916c-0.248,0.131-0.514,0.27-0.797,0.416c-0.294,0.121-0.617,0.223-0.951,0.324
					c-0.335,0.104-0.681,0.207-1.033,0.314c-0.347,0.125-0.729,0.131-1.1,0.188c-0.373,0.035-0.747,0.072-1.115,0.107
					c-0.369,0.006-0.734-0.049-1.085-0.068c-0.709-0.014-1.336-0.279-1.877-0.4c-0.521-0.219-0.943-0.412-1.212-0.604
					C19.491,416.015,19.361,415.884,19.361,415.884z"/>
				<linearGradient id="SVGID_32_" gradientUnits="userSpaceOnUse" x1="16.4565" y1="421.9355" x2="32.9941" y2="421.9355">
					<stop  offset="0" style="stop-color:#232323"/>
					<stop  offset="1" style="stop-color:#232323"/>
				</linearGradient>
				<path fill="url(#SVGID_32_)" d="M16.457,421.694c0,0,0.253,0.09,0.702,0.193c0.435,0.143,1.099,0.209,1.863,0.354
					c0.391,0.037,0.813,0.078,1.261,0.119c0.442,0.064,0.919,0.039,1.406,0.049c0.489,0.006,0.993,0.01,1.504,0.014
					c0.512-0.043,1.032-0.084,1.55-0.127c0.519-0.055,1.046-0.027,1.55-0.145c0.506-0.086,1.005-0.17,1.489-0.25
					c0.487-0.072,0.956-0.141,1.402-0.209c0.436-0.111,0.85-0.215,1.231-0.313c1.53-0.377,2.579-0.578,2.579-0.578
					s-0.973,0.406-2.478,0.943c-0.377,0.131-0.786,0.271-1.218,0.424c-0.446,0.1-0.917,0.203-1.404,0.311
					c-0.491,0.104-0.997,0.205-1.511,0.311c-0.512,0.127-1.054,0.113-1.584,0.174c-0.533,0.035-1.066,0.072-1.591,0.105
					c-0.526,0.002-1.046-0.049-1.546-0.07c-1.004-0.012-1.922-0.266-2.709-0.389c-0.775-0.211-1.412-0.406-1.838-0.602
					C16.681,421.837,16.457,421.694,16.457,421.694z"/>
				<linearGradient id="SVGID_33_" gradientUnits="userSpaceOnUse" x1="14.2217" y1="428.1865" x2="35.0054" y2="428.1865">
					<stop  offset="0" style="stop-color:#232323"/>
					<stop  offset="1" style="stop-color:#232323"/>
				</linearGradient>
				<path fill="url(#SVGID_33_)" d="M14.222,427.95c0,0,0.319,0.092,0.885,0.197c0.554,0.145,1.381,0.207,2.346,0.352
					c0.49,0.039,1.021,0.078,1.581,0.119c0.558,0.064,1.152,0.035,1.764,0.053c0.611,0.006,1.244,0.014,1.887,0.021
					c0.641-0.045,1.292-0.092,1.944-0.137c0.651-0.051,1.309-0.021,1.944-0.135c0.638-0.088,1.266-0.172,1.874-0.256
					c0.608-0.088,1.198-0.148,1.758-0.211c0.553-0.111,1.075-0.217,1.557-0.313c1.931-0.381,3.242-0.584,3.242-0.584
					s-1.25,0.412-3.161,0.951c-0.479,0.133-0.998,0.275-1.546,0.424c-0.56,0.104-1.148,0.217-1.762,0.309
					c-0.614,0.098-1.249,0.201-1.893,0.303c-0.642,0.127-1.311,0.115-1.971,0.18c-0.663,0.029-1.325,0.063-1.977,0.092
					c-0.654-0.02-1.296-0.043-1.92-0.064c-1.247-0.004-2.394-0.258-3.377-0.379c-0.49-0.086-0.931-0.215-1.323-0.309
					c-0.393-0.088-0.73-0.195-1.004-0.291C14.518,428.097,14.222,427.95,14.222,427.95z"/>
				<linearGradient id="SVGID_34_" gradientUnits="userSpaceOnUse" x1="13.5508" y1="434.8916" x2="36.124" y2="434.8916">
					<stop  offset="0" style="stop-color:#232323"/>
					<stop  offset="1" style="stop-color:#232323"/>
				</linearGradient>
				<path fill="url(#SVGID_34_)" d="M13.551,434.655c0,0,0.349,0.092,0.963,0.197c0.305,0.064,0.676,0.131,1.107,0.176
					c0.43,0.053,0.914,0.111,1.443,0.178c0.53,0.035,1.105,0.074,1.714,0.117c0.606,0.066,1.25,0.035,1.915,0.053
					c0.664,0.006,1.351,0.014,2.048,0.021c0.696-0.045,1.403-0.092,2.111-0.139c0.707-0.051,1.42-0.021,2.111-0.131
					c0.694-0.086,1.376-0.174,2.036-0.256c0.663-0.076,1.302-0.145,1.91-0.215c0.601-0.109,1.169-0.215,1.693-0.311
					c2.101-0.381,3.523-0.584,3.523-0.584s-1.366,0.41-3.447,0.953c-0.521,0.131-1.086,0.273-1.684,0.424
					c-0.609,0.098-1.25,0.203-1.913,0.309c-0.666,0.098-1.354,0.197-2.053,0.301c-0.697,0.125-1.419,0.117-2.135,0.18
					c-0.717,0.031-1.435,0.063-2.142,0.092c-0.707-0.021-1.404-0.043-2.077-0.064c-1.349-0.002-2.593-0.256-3.66-0.379
					c-0.532-0.084-1.013-0.213-1.439-0.307c-0.427-0.088-0.793-0.195-1.093-0.293C13.877,434.802,13.551,434.655,13.551,434.655z"/>
				<linearGradient id="SVGID_35_" gradientUnits="userSpaceOnUse" x1="12.0088" y1="441.1748" x2="36.8623" y2="441.1748">
					<stop  offset="0" style="stop-color:#232323"/>
					<stop  offset="1" style="stop-color:#232323"/>
				</linearGradient>
				<path fill="url(#SVGID_35_)" d="M12.009,440.022c0,0,0.356,0.184,1.002,0.441c0.326,0.123,0.721,0.273,1.186,0.41
					c0.457,0.154,0.993,0.271,1.563,0.428c0.582,0.123,1.207,0.275,1.882,0.363c0.669,0.123,1.385,0.17,2.12,0.26
					c0.735,0.068,1.503,0.094,2.279,0.121c0.778-0.023,1.569,0.012,2.357-0.063c0.788-0.063,1.582-0.059,2.353-0.178
					c0.771-0.109,1.54-0.158,2.268-0.313c0.731-0.129,1.44-0.254,2.112-0.373c0.664-0.154,1.294-0.299,1.874-0.436
					c1.169-0.244,2.115-0.561,2.793-0.732c0.676-0.18,1.063-0.283,1.063-0.283s-0.372,0.148-1.021,0.406
					c-0.661,0.225-1.571,0.668-2.734,0.975c-0.578,0.17-1.204,0.354-1.865,0.549c-0.672,0.158-1.383,0.32-2.121,0.467
					c-0.735,0.172-1.515,0.234-2.297,0.361c-0.782,0.135-1.59,0.15-2.393,0.227c-0.804,0.059-1.612,0.008-2.404,0.018
					c-0.792-0.043-1.574-0.084-2.324-0.168c-1.504-0.168-2.882-0.502-4.042-0.838c-1.154-0.357-2.078-0.766-2.704-1.084
					C12.335,440.259,12.009,440.022,12.009,440.022z"/>
				<linearGradient id="SVGID_36_" gradientUnits="userSpaceOnUse" x1="11.1157" y1="449.0605" x2="37.7305" y2="449.0605">
					<stop  offset="0" style="stop-color:#232323"/>
					<stop  offset="1" style="stop-color:#232323"/>
				</linearGradient>
				<path fill="url(#SVGID_36_)" d="M11.116,447.845c0,0,0.385,0.188,1.08,0.447c0.351,0.127,0.775,0.275,1.273,0.414
					c0.492,0.158,1.065,0.275,1.677,0.436c1.239,0.279,2.704,0.488,4.281,0.633c0.787,0.07,1.606,0.098,2.436,0.129
					c0.832-0.021,1.677,0.016,2.519-0.055c0.844-0.059,1.691-0.051,2.516-0.168c0.827-0.107,1.648-0.152,2.427-0.303
					c0.784-0.127,1.542-0.25,2.262-0.365c0.713-0.152,1.388-0.297,2.01-0.43c1.252-0.24,2.27-0.555,2.995-0.725
					c0.726-0.178,1.141-0.281,1.141-0.281s-0.401,0.146-1.102,0.404c-0.711,0.223-1.694,0.666-2.941,0.967
					c-0.619,0.17-1.291,0.352-2,0.543c-0.722,0.146-1.482,0.303-2.271,0.461c-0.787,0.166-1.617,0.229-2.453,0.352
					c-0.835,0.131-1.697,0.143-2.553,0.215c-0.858,0.055-1.718,0.002-2.564,0.01c-0.845-0.047-1.676-0.09-2.478-0.178
					c-1.604-0.172-3.076-0.506-4.316-0.846c-1.237-0.361-2.231-0.771-2.907-1.094C11.471,448.083,11.116,447.845,11.116,447.845z"/>
				<linearGradient id="SVGID_37_" gradientUnits="userSpaceOnUse" x1="10.4448" y1="456.8818" x2="37.0601" y2="456.8818">
					<stop  offset="0" style="stop-color:#232323"/>
					<stop  offset="1" style="stop-color:#232323"/>
				</linearGradient>
				<path fill="url(#SVGID_37_)" d="M10.445,455.665c0,0,0.385,0.188,1.081,0.447c0.351,0.127,0.775,0.277,1.272,0.416
					c0.493,0.156,1.065,0.275,1.678,0.434c1.238,0.281,2.704,0.49,4.281,0.633c0.787,0.072,1.606,0.1,2.435,0.131
					c0.832-0.021,1.678,0.014,2.52-0.055c0.844-0.061,1.691-0.053,2.516-0.168c0.827-0.107,1.647-0.152,2.427-0.303
					c0.784-0.127,1.542-0.25,2.261-0.365c0.714-0.152,1.388-0.299,2.01-0.43c1.252-0.242,2.27-0.557,2.995-0.727
					c0.726-0.18,1.141-0.279,1.141-0.279s-0.4,0.146-1.102,0.404c-0.711,0.223-1.694,0.666-2.94,0.967
					c-0.62,0.168-1.292,0.352-2.001,0.543c-0.721,0.146-1.482,0.301-2.271,0.459c-0.787,0.168-1.617,0.229-2.452,0.352
					c-0.836,0.133-1.697,0.145-2.554,0.217c-0.857,0.053-1.718,0.004-2.563,0.008c-0.844-0.047-1.676-0.088-2.478-0.174
					c-1.604-0.174-3.076-0.51-4.315-0.85c-1.238-0.359-2.231-0.771-2.907-1.092C10.8,455.905,10.445,455.665,10.445,455.665z"/>
				<linearGradient id="SVGID_38_" gradientUnits="userSpaceOnUse" x1="10.6694" y1="463.5859" x2="37.2837" y2="463.5859">
					<stop  offset="0" style="stop-color:#232323"/>
					<stop  offset="1" style="stop-color:#232323"/>
				</linearGradient>
				<path fill="url(#SVGID_38_)" d="M10.669,462.37c0,0,0.384,0.188,1.08,0.447c0.351,0.125,0.775,0.277,1.273,0.416
					c0.492,0.156,1.064,0.273,1.677,0.432c1.239,0.283,2.705,0.492,4.281,0.635c0.787,0.072,1.606,0.1,2.436,0.131
					c0.831-0.023,1.677,0.014,2.519-0.055c0.844-0.061,1.691-0.053,2.516-0.17c0.826-0.105,1.647-0.152,2.426-0.303
					c0.785-0.125,1.543-0.248,2.262-0.363c0.713-0.154,1.388-0.299,2.01-0.43c1.251-0.242,2.269-0.557,2.995-0.727
					c0.726-0.18,1.14-0.281,1.14-0.281s-0.4,0.146-1.101,0.406c-0.711,0.223-1.694,0.664-2.941,0.965
					c-0.619,0.168-1.292,0.352-2,0.545c-0.722,0.146-1.483,0.299-2.271,0.459c-0.787,0.168-1.618,0.229-2.453,0.35
					c-0.835,0.135-1.697,0.145-2.553,0.217c-0.858,0.055-1.718,0.004-2.564,0.01c-0.844-0.047-1.676-0.09-2.478-0.176
					c-1.604-0.172-3.076-0.508-4.316-0.848c-1.237-0.359-2.231-0.771-2.907-1.094C11.024,462.608,10.669,462.37,10.669,462.37z"/>
				<linearGradient id="SVGID_39_" gradientUnits="userSpaceOnUse" x1="10.4448" y1="470.9609" x2="37.0601" y2="470.9609">
					<stop  offset="0" style="stop-color:#232323"/>
					<stop  offset="1" style="stop-color:#232323"/>
				</linearGradient>
				<path fill="url(#SVGID_39_)" d="M10.445,469.745c0,0,0.385,0.188,1.081,0.447c0.351,0.125,0.775,0.277,1.272,0.416
					c0.493,0.156,1.065,0.273,1.678,0.432c1.238,0.283,2.704,0.492,4.281,0.635c0.787,0.07,1.606,0.1,2.435,0.131
					c0.832-0.023,1.678,0.012,2.52-0.055c0.844-0.061,1.691-0.053,2.516-0.17c0.827-0.105,1.647-0.152,2.427-0.303
					c0.784-0.125,1.542-0.248,2.261-0.363c0.714-0.154,1.388-0.299,2.01-0.43c1.252-0.242,2.27-0.557,2.995-0.727
					c0.726-0.18,1.141-0.281,1.141-0.281s-0.4,0.146-1.102,0.406c-0.711,0.223-1.694,0.664-2.94,0.965
					c-0.62,0.168-1.292,0.352-2.001,0.543c-0.721,0.148-1.482,0.301-2.271,0.461c-0.787,0.168-1.617,0.227-2.452,0.35
					c-0.836,0.135-1.697,0.145-2.554,0.217c-0.857,0.055-1.718,0.004-2.563,0.01c-0.844-0.047-1.676-0.09-2.478-0.176
					c-1.604-0.174-3.076-0.508-4.315-0.848c-1.238-0.359-2.231-0.771-2.907-1.094C10.8,469.983,10.445,469.745,10.445,469.745z"/>
			</g>
			<g>
				<linearGradient id="SVGID_40_" gradientUnits="userSpaceOnUse" x1="128.2944" y1="304.2178" x2="210.478" y2="304.2178">
					<stop  offset="0" style="stop-color:#232323"/>
					<stop  offset="1" style="stop-color:#232323"/>
				</linearGradient>
				<path fill="url(#SVGID_40_)" d="M128.294,322.399c0,0,0,7.711,6.369,3.018l11.063-20.783l22.795-13.744l22.795,13.408
					l14.08,22.459c0,0,5.697,0.672,5.027-4.691l-14.08-21.789l-26.816-18.773l-28.16,18.773L128.294,322.399z"/>
				<linearGradient id="SVGID_41_" gradientUnits="userSpaceOnUse" x1="152.4312" y1="340.418" x2="187.1245" y2="340.418">
					<stop  offset="0" style="stop-color:#232323"/>
					<stop  offset="1" style="stop-color:#232323"/>
				</linearGradient>
				<polygon fill="url(#SVGID_41_)" points="152.431,355.419 184.611,325.417 187.125,331.284 162.654,355.251 				"/>
				
					<linearGradient id="SVGID_42_" gradientUnits="userSpaceOnUse" x1="-316.646" y1="347.627" x2="-281.9478" y2="347.627" gradientTransform="matrix(-0.9996 0.0274 0.0274 0.9996 -142.2762 1.6342)">
					<stop  offset="0" style="stop-color:#232323"/>
					<stop  offset="1" style="stop-color:#232323"/>
				</linearGradient>
				<polygon fill="url(#SVGID_42_)" points="184.179,355.442 151.187,326.331 148.833,332.267 173.955,355.556 				"/>
				<g>
					<linearGradient id="SVGID_43_" gradientUnits="userSpaceOnUse" x1="135.6675" y1="325.417" x2="203.0483" y2="325.417">
						<stop  offset="0" style="stop-color:#232323"/>
						<stop  offset="1" style="stop-color:#232323"/>
					</linearGradient>
					<path fill="url(#SVGID_43_)" d="M188.634,306.31l-19.777-11.063l-20.785,13.408l-12.404,20.115l0.336,26.816h17.432v-25.141
						c0,0,14.416-23.801,29.836-0.672v25.813h19.777v-28.492L188.634,306.31z M169.191,311.841c-2.592,0-4.693-2.102-4.693-4.693
						s2.102-4.693,4.693-4.693c2.594,0,4.693,2.102,4.693,4.693S171.785,311.841,169.191,311.841z"/>
				</g>
			</g>
			<g>
				<linearGradient id="SVGID_44_" gradientUnits="userSpaceOnUse" x1="133.2397" y1="60.4961" x2="177.0425" y2="60.4961">
					<stop  offset="0" style="stop-color:#232323"/>
					<stop  offset="1" style="stop-color:#232323"/>
				</linearGradient>
				<path fill="url(#SVGID_44_)" d="M174.138,63.4h-3.375c0.217-6.544-0.514-25.381-16.002-27.041c0,0-13.879,1.754-14.285,27.041
					h-4.33c-1.605,0-2.906,1.3-2.906,2.906c0,1.605,1.301,2.906,2.906,2.906h2.275c0.404,3.297,1.977,11.849,7.691,15.42h18.102
					c0,0,8.42-4.756,7.709-15.42h2.215c1.604,0,2.904-1.301,2.904-2.906C177.042,64.701,175.742,63.4,174.138,63.4z M154.984,39.712
					c0,0,13.371,1.071,12.389,23.688h-23.512C144.123,58.914,145.712,42.224,154.984,39.712z"/>
				<linearGradient id="SVGID_45_" gradientUnits="userSpaceOnUse" x1="176.8198" y1="60.7197" x2="220.6226" y2="60.7197">
					<stop  offset="0" style="stop-color:#232323"/>
					<stop  offset="1" style="stop-color:#232323"/>
				</linearGradient>
				<path fill="url(#SVGID_45_)" d="M217.716,63.624h-3.375c0.217-6.544-0.512-25.381-16.002-27.041c0,0-13.879,1.755-14.283,27.041
					h-4.332c-1.604,0-2.904,1.3-2.904,2.906c0,1.606,1.301,2.906,2.904,2.906h2.277c0.402,3.297,1.975,11.849,7.691,15.42h18.102
					c0,0,8.42-4.756,7.707-15.42h2.215c1.604,0,2.906-1.3,2.906-2.906C220.623,64.924,219.32,63.624,217.716,63.624z
					 M198.564,39.936c0,0,13.371,1.071,12.389,23.688h-23.514C187.701,59.138,189.291,42.447,198.564,39.936z"/>
			</g>
			<g>
				<linearGradient id="SVGID_46_" gradientUnits="userSpaceOnUse" x1="141.5093" y1="194.543" x2="206.7261" y2="194.543">
					<stop  offset="0" style="stop-color:#232323"/>
					<stop  offset="1" style="stop-color:#232323"/>
				</linearGradient>
				<path fill="url(#SVGID_46_)" d="M203.486,179.458l-15.047-0.724c-1.205-1.224-2.584-2.2-4.17-2.851l-3.219-10.057h4.334v-5.363
					h-20.783v5.363h3.949l-3.279,9.833c0,0-2.91,0.081-5.893,4.05l-14.248,0.132c-10.615,14.367,5.223,26.17,7.91,28.019
					c-0.074,5.811,0.23,12.666,1.059,20.764h40.672c0,0,1.621-10.712,1.316-22.562C200.914,202.547,212.279,192.374,203.486,179.458
					z M167.132,180.65c0.787,0.267,0.965,1.84,0.393,3.512c-0.57,1.675-1.668,2.812-2.455,2.545
					c-0.787-0.269-0.963-1.84-0.393-3.514C165.248,181.52,166.345,180.383,167.132,180.65z M153.22,202.6
					c-11.822-6.128-4.674-18.6-4.674-18.6l8.252,0.321C155.121,188.303,153.716,194.113,153.22,202.6z M155.837,202.7
					c0.496-8.939,5.75-21.748,8.99-23.689c-0.014,0.051-0.191,0.233-0.229,0.442c-15.641,27.045,1.725,43.841,4.227,46.891
					C158.57,225.942,155.103,209.29,155.837,202.7z M195.845,201.194c-0.484-6.446-1.662-12.847-4.1-17.714h8.166
					C199.912,183.48,206.068,195.251,195.845,201.194z"/>
			</g>
			<g>
				
					<linearGradient id="SVGID_47_" gradientUnits="userSpaceOnUse" x1="179.6753" y1="510.7969" x2="221.2417" y2="510.7969" gradientTransform="matrix(0.8414 0.5404 -0.5404 0.8414 257.2263 -70.6113)">
					<stop  offset="0" style="stop-color:#232323"/>
					<stop  offset="1" style="stop-color:#232323"/>
				</linearGradient>
				<path fill="url(#SVGID_47_)" d="M166.888,440.988c-1.238-0.795-2.572-1.373-3.977-1.752c1.484,2.221,1.584,6.549,1.475,9.262
					c-0.398,9.906-3.543,19.168-12.291,24.873c-4.498,2.934-9.393,4.33-14.092,6.807c-2.051,1.08-3.633,2.711-4.68,4.754
					c-0.615,1.195-1.809,3.787-1.887,5.395c0.035,0.137,0.053,0.291,0.098,0.416v0.447c-0.098-0.227-0.113-0.531-0.098-0.863
					c-0.305-1.217-0.189-2.811-0.127-4.053c0.473-9.076,11.588-15.121,18.109-20.109c4.52-3.455,7.502-6.521,10-11.639
					c1.248-2.555,2.217-5.262,2.557-8.088c0.26-2.168-0.146-5.385,0.795-7.234c-9.529-2.463-22.238,4.361-30.398,17.064
					c-9.404,14.643-9.201,31.541,0.457,37.746c9.656,6.203,25.111-0.639,34.516-15.281
					C176.751,464.09,176.548,447.191,166.888,440.988z"/>
				<path opacity="0.7" fill="#FFFFFF" d="M162.824,439.08c-0.021,0.037-0.033,0.084-0.053,0.123
					c0.047,0.014,0.096,0.021,0.141,0.033C162.88,439.189,162.857,439.127,162.824,439.08z"/>
				
					<linearGradient id="SVGID_48_" gradientUnits="userSpaceOnUse" x1="179.6685" y1="540.2939" x2="221.2484" y2="540.2939" gradientTransform="matrix(0.8414 0.5404 -0.5404 0.8414 257.2263 -70.6113)">
					<stop  offset="0" style="stop-color:#232323"/>
					<stop  offset="1" style="stop-color:#232323"/>
				</linearGradient>
				<path fill="url(#SVGID_48_)" d="M131.535,491.189v-0.447c-0.045-0.125-0.063-0.279-0.098-0.416
					C131.421,490.658,131.437,490.963,131.535,491.189z"/>
				<path opacity="0.7" fill="#FFFFFF" d="M131.535,491.189v-0.447c-0.045-0.125-0.063-0.279-0.098-0.416
					C131.421,490.658,131.437,490.963,131.535,491.189z"/>
			</g>
			<g>
				<path fill="none" d="M195.513,483.105c-2.846-0.113-5.619-0.863-8.268-1.902c-4.617-1.816-7.709-4.123-10.947-7.484
					c-0.863,2.166-2.02,4.352-3.508,6.512c5.898,4.385,13.252,5.744,20.859,5.441c2.715-0.107,7.02-0.551,9.115-2.207
					c0.008-0.047,0.014-0.096,0.023-0.143C200.869,482.529,197.695,483.193,195.513,483.105z"/>
				
					<linearGradient id="SVGID_49_" gradientUnits="userSpaceOnUse" x1="344.7358" y1="431.0752" x2="386.3069" y2="431.0752" gradientTransform="matrix(-0.4717 0.8817 -0.8818 -0.4717 736.9066 359.5494)">
					<stop  offset="0" style="stop-color:#232323"/>
					<stop  offset="1" style="stop-color:#232323"/>
				</linearGradient>
				<path fill="url(#SVGID_49_)" d="M176.298,473.719c3.238,3.361,6.33,5.668,10.947,7.484c2.648,1.039,5.422,1.789,8.268,1.902
					c2.182,0.088,5.355-0.576,7.275,0.217c1.695-9.695-6.119-21.822-19.432-28.943c-1.889-1.012-3.801-1.871-5.711-2.588
					C178.654,455.943,179.933,464.609,176.298,473.719z"/>
				
					<linearGradient id="SVGID_50_" gradientUnits="userSpaceOnUse" x1="344.7368" y1="428.335" x2="386.3059" y2="428.335" gradientTransform="matrix(-0.4717 0.8817 -0.8818 -0.4717 736.9066 359.5494)">
					<stop  offset="0" style="stop-color:#232323"/>
					<stop  offset="1" style="stop-color:#232323"/>
				</linearGradient>
				<path fill="url(#SVGID_50_)" d="M172.791,480.23c-2.426,3.518-5.781,6.951-10.352,10.072c0.432,0.248,0.865,0.49,1.309,0.729
					c15.346,8.209,32.174,6.66,37.59-3.463c0.693-1.297,1.164-2.674,1.428-4.104c-2.096,1.656-6.4,2.1-9.115,2.207
					C186.042,485.975,178.689,484.615,172.791,480.23z"/>
				<path opacity="0.7" fill="#FFFFFF" d="M202.765,483.465c0.047-0.035,0.105-0.063,0.148-0.102
					c-0.037-0.018-0.086-0.025-0.125-0.041C202.779,483.369,202.773,483.418,202.765,483.465z"/>
			</g>
			<g>
				<linearGradient id="SVGID_51_" gradientUnits="userSpaceOnUse" x1="-155.8354" y1="185.1885" x2="-57.9736" y2="185.1885">
					<stop  offset="0" style="stop-color:#232323"/>
					<stop  offset="1" style="stop-color:#232323"/>
				</linearGradient>
				<path fill="url(#SVGID_51_)" d="M-75.829,170.581c3.933-4.579,10.402-6.573,10.481-13.594c0.043-3.895-1.837-6.65-3.849-9.833
					c-1.596-2.525-3.272-5.979-6.855-5.319c2.538,2.208,3.516,3.924,3.553,7.553c0.037,3.648-0.149,7.504-3.353,9.784
					c-3.339,2.376-7.362,0.947-11,0.043c-4.38-1.088-7.828-1.812-12.242-0.434c-3.302,1.03-6.292,3.063-9.784,2.184
					c-3.76-0.946-7.137-1.973-11.222-1.521c-3.669,0.408-7.844,1.353-11.622,0.435c-8.875-2.155-6.373-11.822-4.118-17.844
					c-5.081,3.047-8.625,7.599-8.396,13.61c0.122,3.199,0.766,5.902,3.068,8.313c1.609,1.686,4.347,4.339,6.541,4.873l-0.446,0.223
					c-0.252,1.815-8.328,0.67-10.118,0.67c-3.732,0-8.094,0.545-10.644,3.532c5.305,0.938,6.524,7.642,10.928,10.044
					c3.94,2.15,7.24,0.548,11.398,1.174c2.949,0.443,0.893,10.056,7.542,18.604c2.004,2.838,6.017,4.736,6.536,8.438
					c0.263,1.873-1.564,6.705,0.449,10.503c1.655,4.4,3.589,5.115,7.82,5.86c19.443,3.974,23.243-8.989,21.231-15.247
					c-0.241-4.864,2.374-6.17,5.078-9.664c5.064-6.547,8.33-12.461,7.024-20.924c4.746,1.137,9.867,1.848,14.503-0.475
					c4.86-2.434,5.342-8.388,5.351-13.442C-61.251,174.236-70.485,168.785-75.829,170.581z M-115.917,167.542
					c2.107-4.557,7.526-2.02,10.566-0.051v-0.223c2.363,0.279,4.156-1.799,6.704-1.788c2.788,0.012,5.072,0.603,6.202,3.402
					c2.736,6.785-4.412,15.278-5.972,21.628c-0.669,2.72-3.262,23.209-9.901,15.934c-2.193-2.403-1.883-7.759-2.384-10.793
					c-0.663-4.006-2.258-7.884-3.762-11.621C-116.317,179.425-118.15,172.375-115.917,167.542z M-119.99,195.65
					c-1.913,0-3.464-1.551-3.464-3.464s1.551-3.464,3.464-3.464s3.465,1.551,3.465,3.464S-118.077,195.65-119.99,195.65z
					 M-94.351,220.915c-2.668,2.722-6.301,1.957-9.882,2c-3.385,0.04-7.88,1.09-10.732-1.167c-2.936-2.322-2.963-6.707-0.273-9.167
					c3.104-2.843,6.312-1.109,9.441,0.278l-0.224,0.224c2.581-0.786,7.69-3.418,10.896-1.738
					C-91.39,213.301-91.784,218.296-94.351,220.915z M-89.82,195.65c-1.913,0-3.463-1.551-3.463-3.464s1.55-3.464,3.463-3.464
					c1.914,0,3.465,1.551,3.465,3.464S-87.907,195.65-89.82,195.65z"/>
				<linearGradient id="SVGID_52_" gradientUnits="userSpaceOnUse" x1="-112.9497" y1="216.5449" x2="-109.5972" y2="216.5449">
					<stop  offset="0" style="stop-color:#232323"/>
					<stop  offset="1" style="stop-color:#232323"/>
				</linearGradient>
				<circle fill="url(#SVGID_52_)" cx="-111.273" cy="216.545" r="1.676"/>
				<linearGradient id="SVGID_53_" gradientUnits="userSpaceOnUse" x1="-99.5405" y1="215.8745" x2="-96.188" y2="215.8745">
					<stop  offset="0" style="stop-color:#232323"/>
					<stop  offset="1" style="stop-color:#232323"/>
				</linearGradient>
				<circle fill="url(#SVGID_53_)" cx="-97.864" cy="215.875" r="1.676"/>
			</g>
			<g>
				<linearGradient id="SVGID_54_" gradientUnits="userSpaceOnUse" x1="-127.0005" y1="436.9834" x2="-101.2534" y2="436.9834">
					<stop  offset="0" style="stop-color:#232323"/>
					<stop  offset="1" style="stop-color:#232323"/>
				</linearGradient>
				<path fill="url(#SVGID_54_)" d="M-110.792,460.638c-3.657,0-5.237-5.992-6.186-9.592c-0.163-0.617-0.304-1.154-0.431-1.557
					l-0.35-1.127c-1.13-3.66-2.197-7.115-4.571-10.105c-0.317-0.4-0.822-0.893-1.358-1.416c-1.523-1.482-3.417-3.33-3.309-5.242
					c0.051-0.879,0.511-1.664,1.37-2.328c2.711-2.104,6.438-1.104,9.093,0.754c-0.365-0.689-0.79-1.367-1.225-2.063
					c-0.926-1.48-1.883-3.012-2.301-4.779c-0.521-2.205-0.575-8.063,2.381-9.479c2.495-1.197,5.612,0.479,9.253,4.986
					c2.844,3.521,4.451,7.67,5.532,10.891c1.767,5.258,2.644,13.092-0.193,19.309c-1.261,2.766-3.297,5.936-6.225,9.695l-0.134,0.17
					c-0.876,1.125-0.938,1.193-1.004,1.254l-0.24-0.258l0.037,0.883C-110.698,460.638-110.744,460.638-110.792,460.638z
					 M-122.048,429.44c-0.996,0-1.95,0.266-2.757,0.891c-0.546,0.422-0.824,0.861-0.852,1.344c-0.074,1.301,1.579,2.914,2.906,4.209
					c0.567,0.551,1.102,1.072,1.472,1.539c2.531,3.188,3.686,6.928,4.803,10.543l0.349,1.121c0.131,0.42,0.277,0.977,0.446,1.615
					c0.758,2.873,2.132,8.088,4.542,8.561l-0.219-0.238c0.064-0.076,0.546-0.697,0.855-1.094l0.134-0.172
					c2.862-3.674,4.846-6.756,6.063-9.426c2.204-4.83,2.26-12.023,0.143-18.324c-1.048-3.117-2.596-7.121-5.305-10.477
					c-3.983-4.93-6.346-5.234-7.631-4.619c-1.938,0.93-2.176,5.75-1.655,7.961c0.367,1.553,1.225,2.926,2.133,4.377
					c0.966,1.545,1.964,3.141,2.366,5.018l0.584,2.738l-1.761-2.176C-116.874,431.048-119.591,429.44-122.048,429.44z"/>
			</g>
			<ellipse fill="none" cx="-123.111" cy="461.866" rx="3.241" ry="5.14"/>
			<ellipse fill="none" cx="-102.327" cy="461.643" rx="3.241" ry="5.141"/>
			<path fill="none" d="M-105.35,473.494c-2.793-1.211-4.243-4.943-7.593-4.699l-0.446,0.223c-2.403-1.189-5.024,4.586-7.152,5.586
				c-2.323,1.094-8.45,0.373-5.314,4.471c1.734,2.266,5.107,3.727,7.332,5.525c2.778,2.25,3.942,4.977,5.978,7.645
				c0.551-3.248,3.606-6.168,6.078-8.248c2.133-1.793,7.119-3.115,8.062-5.805C-96.823,473.682-103.034,474.498-105.35,473.494z"/>
			<g>
				<linearGradient id="SVGID_55_" gradientUnits="userSpaceOnUse" x1="-144.4429" y1="468.6416" x2="-79.6719" y2="468.6416">
					<stop  offset="0" style="stop-color:#232323"/>
					<stop  offset="1" style="stop-color:#232323"/>
				</linearGradient>
				<path fill="url(#SVGID_55_)" d="M-90.651,456.234c-1.905-5.842-5.896-12.986-12.162-14.531c-0.237,2.164-0.729,4.26-1.582,6.129
					c-1.502,3.293-3.95,6.744-6.144,9.561c-0.304,0.387-1.003,1.289-1.063,1.344l0.224,0.447c-3.813,0.156-5.261-8.035-6.089-10.676
					c-0.794-2.533-1.51-5.053-2.599-7.418c-3.166-0.762-6.943,2.676-8.576,5.133c-2.23,3.354-2.813,7.469-3.912,11.348
					c-1.752,6.197-3.578,14.043-11.861,11.699c-0.488,8.037,5.443,16.688,11.572,21.48c6.486,5.074,14.761,6.113,22.806,5.309
					c3.563-0.355,7.174-0.105,10.329-1.727c3.037-1.561,6.013-2.969,8.679-5.156c6.537-5.365,9.868-12.775,11.357-20.744
					C-88.338,471.799-88.79,461.941-90.651,456.234z M-102.327,456.502c1.79,0,3.241,2.301,3.241,5.141s-1.451,5.141-3.241,5.141
					s-3.241-2.301-3.241-5.141S-104.117,456.502-102.327,456.502z M-123.111,456.727c1.79,0,3.241,2.299,3.241,5.139
					s-1.451,5.141-3.241,5.141s-3.241-2.301-3.241-5.141S-124.901,456.727-123.111,456.727z M-98.406,478.191
					c-0.943,2.689-5.928,4.012-8.062,5.805c-2.472,2.08-5.527,5-6.078,8.248c-2.035-2.668-3.199-5.395-5.978-7.645
					c-2.225-1.799-5.598-3.26-7.332-5.525c-3.136-4.098,2.991-3.377,5.314-4.471c2.128-1,4.75-6.775,7.152-5.586l0.446-0.223
					c3.35-0.244,4.799,3.488,7.593,4.699C-103.034,474.498-96.823,473.682-98.406,478.191z"/>
			</g>
			<g>
				<linearGradient id="SVGID_56_" gradientUnits="userSpaceOnUse" x1="-125.1401" y1="317.5693" x2="-118.7705" y2="317.5693">
					<stop  offset="0" style="stop-color:#232323"/>
					<stop  offset="1" style="stop-color:#232323"/>
				</linearGradient>
				<ellipse fill="url(#SVGID_56_)" cx="-121.955" cy="317.569" rx="3.185" ry="3.688"/>
				<linearGradient id="SVGID_57_" gradientUnits="userSpaceOnUse" x1="-104.4878" y1="316.8994" x2="-98.1182" y2="316.8994">
					<stop  offset="0" style="stop-color:#232323"/>
					<stop  offset="1" style="stop-color:#232323"/>
				</linearGradient>
				<ellipse fill="url(#SVGID_57_)" cx="-101.303" cy="316.899" rx="3.185" ry="3.688"/>
				<linearGradient id="SVGID_58_" gradientUnits="userSpaceOnUse" x1="-121.769" y1="334.8291" x2="-102.9966" y2="334.8291">
					<stop  offset="0" style="stop-color:#232323"/>
					<stop  offset="1" style="stop-color:#232323"/>
				</linearGradient>
				<path fill="url(#SVGID_58_)" d="M-102.997,332.331c0-1.48-4.202-2.682-9.386-2.682c-5.185,0-9.386,1.201-9.386,2.682
					c0,0.331,0.221,0.647,0.605,0.94c0.846,1.729,2.554,2.09,4.331,3.221c1.935,1.23,2.553,4.077,5.17,3.419
					c2.084-0.524,3.006-2.622,4.379-4.04c1.131-1.168,3.128-1.339,3.762-2.663C-103.187,332.933-102.997,332.639-102.997,332.331z"
					/>
				<g>
					<path fill="none" d="M-113.724,299.815c-20.449,0.336-19.779,14.75-19.779,14.75c4.023,30.17,20.114,34.527,20.114,34.527
						c20.113-2.346,22.46-33.857,22.46-33.857C-91.599,298.138-113.724,299.815-113.724,299.815z"/>
					<linearGradient id="SVGID_59_" gradientUnits="userSpaceOnUse" x1="-157.2427" y1="318.1631" x2="-64.8828" y2="318.1631">
						<stop  offset="0" style="stop-color:#232323"/>
						<stop  offset="1" style="stop-color:#232323"/>
					</linearGradient>
					<path fill="url(#SVGID_59_)" d="M-74.25,300.562c-2.656-1.807-5.657-2.703-8.852-1.811c4.682-2.447-0.852-5.961-3.752-6.025
						c0.509-3.408-0.47-6.561-4.687-5.105c-0.921-3.109-5.13-5.461-7.432-2.002c-0.494-2.355-3.553-3.775-5.095-1.668
						c-2.429-3.182-4.757-3.736-7.327-0.344c-0.372-4.879-6.802-2.852-7.434,1.021c-3.186-4.889-5.938-1.027-7.283,2.676
						c-2.575-3.875-8.465,0.201-6.846,3.826c-4.044-2.209-8.39,1.006-5.273,5.283c-4.933-1.811-6.513,4.602-2.646,6.754l1.005,0.67
						c-3-1.207-5.31-1.102-8.363,0c-2.902,1.049-6.028,2.363-9.009,0.369c1.325,7.432,9.064,14.537,16.842,12.365
						c-3.325,1.459-2.788,6.141,0.236,7.707c-1.938,2.215-3.602,8.061,1.609,7.785c-2.355,2.465-0.989,5.824,2.674,5.346
						c-1.511,3.406-0.425,7.939,4.08,6.445c-0.414,3.281,1.872,6.428,5.29,4.693c-0.462,3.646,5.548,6.836,6.671,2.918
						c0.947,3.602,7.581,6.467,8.196,1.338c2.464,3.094,9.061,3.486,8.7-1.984c4.339-0.238,6.205-0.656,6.034-5.699
						c3.276,0.137,5.95-1.311,4.768-5.021c2.625-0.504,5.908-4.836,2.657-6.703c2.869-0.268,6.201-3.516,3.017-5.84
						c1.072-0.324,2.192-0.787,3.195-1.316c0.632-1.521,0.615-3.252-0.832-4.314c4.121,0.373,3.814-4.461,1.584-6.297
						c8.696,0.328,10.05-10.107,17.64-12.051C-69.238,303.251-70.65,303.011-74.25,300.562z M-139.679,312.183
						c-2.125-0.155-4.109,1.156-6.458,1.029c-1.413-0.076-2.489-0.429-3.526-1.349c-1.385-1.229-1.558-3.359-2.684-4.507
						c2.083,1.051,5.047,0.029,7.304,0.018c3.385-0.017,4.369,2.045,5.865,4.806L-139.679,312.183z M-113.389,349.093
						c0,0-16.09-4.357-20.114-34.527c0,0-0.67-14.414,19.779-14.75c0,0,22.125-1.678,22.795,15.42
						C-90.929,315.235-93.275,346.747-113.389,349.093z M-76.846,308.667c-1.033,0.925-2.108,1.282-3.52,1.365
						c-2.349,0.139-4.339-1.164-6.463-0.999h-0.5c1.483-2.768,2.457-4.835,5.842-4.833c2.257,0.001,5.226,1.008,7.304-0.053
						C-75.304,305.301-75.467,307.431-76.846,308.667z"/>
				</g>
			</g>
			<g>
				<linearGradient id="SVGID_60_" gradientUnits="userSpaceOnUse" x1="-85.834" y1="32.2261" x2="-72.8491" y2="32.2261">
					<stop  offset="0" style="stop-color:#232323"/>
					<stop  offset="1" style="stop-color:#232323"/>
				</linearGradient>
				<path fill="url(#SVGID_60_)" d="M-85.834,29.209c0.347-3.984,4.285-7.63,4.772-12.302c2.593,5.164,6.837,9.356,7.96,14.985
					c1.247,6.252-2.383,10.404-5.138,15.653c-0.026-2.193-0.982-3.825-0.495-6.007c0.481-2.146,1.961-3.423,2.137-5.625
					c0.251-3.164-1.621-9.165-3.08-11.949c-1.425,2.932-3.607,4.771-5.13,7.256"/>
				<linearGradient id="SVGID_61_" gradientUnits="userSpaceOnUse" x1="-134.9863" y1="31.9868" x2="-122.3359" y2="31.9868">
					<stop  offset="0" style="stop-color:#232323"/>
					<stop  offset="1" style="stop-color:#232323"/>
				</linearGradient>
				<path fill="url(#SVGID_61_)" d="M-122.336,27.291c-1.396-4.084-6.463-6.92-8.182-11.69c-1.376,6.05-4.733,11.494-4.452,17.665
					c0.315,6.856,5.189,10.299,9.434,15.107c-0.542-2.301,0.037-4.247-1.039-6.411c-1.06-2.127-2.94-3.094-3.694-5.357
					c-1.083-3.248-0.677-9.996,0.129-13.274c2.251,2.715,5.012,4.098,7.25,6.32"/>
				<g>
					<linearGradient id="SVGID_62_" gradientUnits="userSpaceOnUse" x1="-137.4912" y1="52.4668" x2="-70.7822" y2="52.4668">
						<stop  offset="0" style="stop-color:#232323"/>
						<stop  offset="1" style="stop-color:#232323"/>
					</linearGradient>
					<path fill="url(#SVGID_62_)" d="M-76.229,44.914c-6.661-30.027-31.5-24.421-31.5-24.421
						c-17.142,3.937-22.54,18.146-24.075,24.131c-3.591,4.117-5.688,9.079-5.688,14.42c0,14.255,14.933,25.812,33.355,25.812
						c18.421,0,33.354-11.557,33.354-25.812C-70.782,53.826-72.789,48.973-76.229,44.914z M-90.282,40.439
						c1.889,0,3.421,1.5,3.421,3.352s-1.532,3.353-3.421,3.353s-3.421-1.501-3.421-3.353S-92.171,40.439-90.282,40.439z
						 M-119.018,40.439c1.89,0,3.421,1.5,3.421,3.352s-1.531,3.353-3.421,3.353s-3.421-1.501-3.421-3.353
						S-120.908,40.439-119.018,40.439z M-103.795,76.475c-12.375,0-22.407-5.628-22.407-12.571c0-6.942,10.033-12.57,22.407-12.57
						c12.375,0,22.408,5.628,22.408,12.57C-81.387,70.847-91.42,76.475-103.795,76.475z"/>
				</g>
				<g>
					<linearGradient id="SVGID_63_" gradientUnits="userSpaceOnUse" x1="-111.8335" y1="62.3955" x2="-105.6758" y2="62.3955">
						<stop  offset="0" style="stop-color:#232323"/>
						<stop  offset="1" style="stop-color:#232323"/>
					</linearGradient>
					<ellipse fill="url(#SVGID_63_)" cx="-108.755" cy="62.396" rx="3.079" ry="3.017"/>
					<linearGradient id="SVGID_64_" gradientUnits="userSpaceOnUse" x1="-102.939" y1="62.3955" x2="-96.7813" y2="62.3955">
						<stop  offset="0" style="stop-color:#232323"/>
						<stop  offset="1" style="stop-color:#232323"/>
					</linearGradient>
					<ellipse fill="url(#SVGID_64_)" cx="-99.86" cy="62.396" rx="3.079" ry="3.017"/>
				</g>
			</g>
			<rect x="-181.224" y="-18.863" fill="none" width="583.471" height="541.473"/>
		</g>
	</g>
</g>
</svg>
